# Blender 3.6.4
# www.blender.org
mtllib tenkyu.mtl
o 球
v -1.666710 2.494410 0.000000
v -2.494410 1.666710 0.000000
v -2.942355 0.585270 0.000000
v -3.000000 0.000000 0.000000
v -2.942355 -0.585270 0.000000
v -2.494410 -1.666710 0.000000
v -0.574026 2.942355 -0.114180
v -1.125990 2.771640 -0.223974
v -1.634685 2.494410 -0.325158
v -2.080560 2.121321 -0.413850
v -2.446479 1.666710 -0.486636
v -2.718381 1.148049 -0.540720
v -2.885820 0.585270 -0.574026
v -2.942355 0.000000 -0.585270
v -2.885820 -0.585270 -0.574026
v -2.718381 -1.148049 -0.540720
v -2.446479 -1.666710 -0.486636
v -2.080560 -2.121321 -0.413850
v -1.634685 -2.494410 -0.325158
v -1.125990 -2.771640 -0.223974
v -0.574026 -2.942355 -0.114180
v -0.540720 2.942355 -0.223974
v -1.060659 2.771640 -0.439341
v -1.539840 2.494410 -0.637824
v -1.959843 2.121321 -0.811794
v -2.304534 1.666710 -0.954570
v -2.560659 1.148049 -1.060659
v -2.718381 0.585270 -1.125990
v -2.771637 0.000000 -1.148049
v -2.718381 -0.585270 -1.125990
v -2.560659 -1.148049 -1.060659
v -2.304534 -1.666710 -0.954570
v -1.959843 -2.121321 -0.811794
v -1.539840 -2.494410 -0.637824
v -1.060659 -2.771640 -0.439341
v -0.540720 -2.942355 -0.223974
v -0.486636 2.942355 -0.325158
v -0.954570 2.771640 -0.637824
v -1.385820 2.494410 -0.925974
v -1.763814 2.121321 -1.178541
v -2.074026 1.666710 -1.385820
v -2.304534 1.148049 -1.539840
v -2.446479 0.585270 -1.634685
v -2.494407 0.000000 -1.666710
v -2.446479 -0.585270 -1.634685
v -2.304534 -1.148049 -1.539840
v -2.074026 -1.666710 -1.385820
v -1.763814 -2.121321 -1.178541
v -1.385820 -2.494410 -0.925974
v -0.954570 -2.771640 -0.637824
v -0.486636 -2.942355 -0.325158
v -0.413850 2.942355 -0.413850
v -0.811794 2.771640 -0.811794
v -1.178541 2.494410 -1.178541
v -1.500000 2.121321 -1.500000
v -1.763814 1.666710 -1.763814
v -1.959843 1.148049 -1.959843
v -2.080560 0.585270 -2.080560
v -2.121321 0.000000 -2.121321
v -2.080560 -0.585270 -2.080560
v -1.959843 -1.148049 -1.959843
v -1.763814 -1.666710 -1.763814
v -1.500000 -2.121321 -1.500000
v -1.178541 -2.494410 -1.178541
v -0.811794 -2.771640 -0.811794
v -0.413850 -2.942355 -0.413850
v -0.325158 2.942355 -0.486636
v -0.637824 2.771640 -0.954570
v -0.925974 2.494410 -1.385820
v -1.178541 2.121321 -1.763814
v -1.385820 1.666710 -2.074026
v -1.539840 1.148049 -2.304534
v -1.634685 0.585270 -2.446479
v -1.666710 0.000000 -2.494410
v -1.634685 -0.585270 -2.446479
v -1.539840 -1.148049 -2.304534
v -1.385820 -1.666710 -2.074026
v -1.178541 -2.121321 -1.763814
v -0.925974 -2.494410 -1.385820
v -0.637824 -2.771640 -0.954570
v -0.325158 -2.942355 -0.486636
v 0.000000 3.000000 0.000000
v -0.223974 2.942355 -0.540720
v -0.439341 2.771640 -1.060659
v -0.637821 2.494410 -1.539840
v -0.811794 2.121321 -1.959843
v -0.954570 1.666710 -2.304534
v -1.060659 1.148049 -2.560659
v -1.125990 0.585270 -2.718381
v -1.148049 0.000000 -2.771637
v -1.125990 -0.585270 -2.718381
v -1.060659 -1.148049 -2.560659
v -0.954570 -1.666710 -2.304534
v -0.811794 -2.121321 -1.959843
v -0.637821 -2.494410 -1.539840
v -0.439341 -2.771640 -1.060659
v -0.223974 -2.942355 -0.540720
v -0.114180 2.942355 -0.574026
v -0.223974 2.771640 -1.125990
v -0.325158 2.494410 -1.634685
v -0.413850 2.121321 -2.080560
v -0.486636 1.666710 -2.446479
v -0.540720 1.148049 -2.718381
v -0.574026 0.585270 -2.885820
v -0.585270 0.000000 -2.942355
v -0.574026 -0.585270 -2.885820
v -0.540720 -1.148049 -2.718381
v -0.486636 -1.666710 -2.446479
v -0.413850 -2.121321 -2.080560
v -0.325158 -2.494410 -1.634685
v -0.223974 -2.771640 -1.125990
v -0.114180 -2.942355 -0.574026
v 0.000000 2.942355 -0.585270
v 0.000000 2.771640 -1.148049
v 0.000000 2.494410 -1.666710
v 0.000000 2.121321 -2.121321
v 0.000000 1.666710 -2.494407
v 0.000000 1.148049 -2.771637
v 0.000000 0.585270 -2.942355
v 0.000000 0.000000 -3.000000
v -0.000000 -0.585270 -2.942355
v -0.000000 -1.148049 -2.771637
v -0.000000 -1.666710 -2.494407
v -0.000000 -2.121321 -2.121321
v -0.000000 -2.494410 -1.666710
v -0.000000 -2.771640 -1.148049
v -0.000000 -2.942355 -0.585270
v 0.114180 2.942355 -0.574026
v 0.223974 2.771640 -1.125990
v 0.325158 2.494410 -1.634685
v 0.413850 2.121321 -2.080560
v 0.486636 1.666710 -2.446479
v 0.540720 1.148049 -2.718381
v 0.574026 0.585270 -2.885820
v 0.585270 -0.000000 -2.942355
v 0.574026 -0.585270 -2.885820
v 0.540720 -1.148049 -2.718381
v 0.486636 -1.666710 -2.446479
v 0.413850 -2.121321 -2.080560
v 0.325158 -2.494410 -1.634685
v 0.223974 -2.771640 -1.125990
v 0.114180 -2.942355 -0.574026
v 0.223974 2.942355 -0.540720
v 0.439341 2.771640 -1.060659
v 0.637824 2.494410 -1.539840
v 0.811794 2.121321 -1.959843
v 0.954570 1.666710 -2.304534
v 1.060659 1.148049 -2.560659
v 1.125990 0.585270 -2.718381
v 1.148049 -0.000000 -2.771637
v 1.125990 -0.585270 -2.718381
v 1.060659 -1.148049 -2.560659
v 0.954570 -1.666710 -2.304534
v 0.811794 -2.121321 -1.959843
v 0.637824 -2.494410 -1.539840
v 0.439341 -2.771640 -1.060659
v 0.223974 -2.942355 -0.540720
v 0.325158 2.942355 -0.486636
v 0.637824 2.771640 -0.954570
v 0.925974 2.494410 -1.385820
v 1.178541 2.121321 -1.763814
v 1.385820 1.666710 -2.074023
v 1.539840 1.148049 -2.304534
v 1.634685 0.585270 -2.446479
v 1.666710 -0.000000 -2.494407
v 1.634685 -0.585270 -2.446479
v 1.539840 -1.148049 -2.304534
v 1.385820 -1.666710 -2.074023
v 1.178541 -2.121321 -1.763814
v 0.925974 -2.494410 -1.385820
v 0.637824 -2.771640 -0.954570
v 0.325158 -2.942355 -0.486636
v 0.413850 2.942355 -0.413850
v 0.811794 2.771640 -0.811794
v 1.178541 2.494410 -1.178541
v 1.500000 2.121321 -1.500000
v 1.763814 1.666710 -1.763814
v 1.959843 1.148049 -1.959843
v 2.080560 0.585270 -2.080560
v 2.121321 -0.000000 -2.121318
v 2.080560 -0.585270 -2.080560
v 1.959843 -1.148049 -1.959843
v 1.763814 -1.666710 -1.763814
v 1.500000 -2.121321 -1.500000
v 1.178541 -2.494410 -1.178541
v 0.811794 -2.771640 -0.811794
v 0.413850 -2.942355 -0.413850
v 0.486636 2.942355 -0.325158
v 0.954570 2.771640 -0.637821
v 1.385820 2.494410 -0.925974
v 1.763814 2.121321 -1.178541
v 2.074026 1.666710 -1.385820
v 2.304534 1.148049 -1.539840
v 2.446479 0.585270 -1.634685
v 2.494407 -0.000000 -1.666710
v 2.446479 -0.585270 -1.634685
v 2.304534 -1.148049 -1.539840
v 2.074026 -1.666710 -1.385820
v 1.763814 -2.121321 -1.178541
v 1.385820 -2.494410 -0.925974
v 0.954570 -2.771640 -0.637821
v 0.486636 -2.942355 -0.325158
v 0.540720 2.942355 -0.223974
v 1.060659 2.771640 -0.439341
v 1.539840 2.494410 -0.637821
v 1.959843 2.121321 -0.811794
v 2.304534 1.666710 -0.954567
v 2.560659 1.148049 -1.060659
v 2.718381 0.585270 -1.125990
v 2.771637 -0.000000 -1.148049
v 2.718381 -0.585270 -1.125990
v 2.560659 -1.148049 -1.060659
v 2.304534 -1.666710 -0.954567
v 1.959843 -2.121321 -0.811794
v 1.539840 -2.494410 -0.637821
v 1.060659 -2.771640 -0.439341
v 0.540720 -2.942355 -0.223974
v 0.574026 2.942355 -0.114180
v 1.125990 2.771640 -0.223974
v 1.634685 2.494410 -0.325158
v 2.080560 2.121321 -0.413850
v 2.446479 1.666710 -0.486636
v 2.718381 1.148049 -0.540720
v 2.885817 0.585270 -0.574026
v 2.942355 -0.000000 -0.585270
v 2.885817 -0.585270 -0.574026
v 2.718381 -1.148049 -0.540720
v 2.446479 -1.666710 -0.486636
v 2.080560 -2.121321 -0.413850
v 1.634685 -2.494410 -0.325158
v 1.125990 -2.771640 -0.223974
v 0.574026 -2.942355 -0.114180
v 0.585270 2.942355 0.000000
v 1.148049 2.771640 0.000000
v 1.666710 2.494410 0.000000
v 2.121321 2.121321 0.000000
v 2.494407 1.666710 0.000000
v 2.771637 1.148049 0.000000
v 2.942355 0.585270 0.000000
v 2.999997 -0.000000 0.000000
v 2.942355 -0.585270 0.000000
v 2.771637 -1.148049 0.000000
v 2.494407 -1.666710 0.000000
v 2.121321 -2.121321 0.000000
v 1.666710 -2.494410 0.000000
v 1.148049 -2.771640 0.000000
v 0.585270 -2.942355 0.000000
v 0.574026 2.942355 0.114180
v 1.125990 2.771640 0.223974
v 1.634685 2.494410 0.325158
v 2.080560 2.121321 0.413850
v 2.446479 1.666710 0.486636
v 2.718381 1.148049 0.540720
v 2.885817 0.585270 0.574026
v 2.942355 -0.000000 0.585273
v 2.885817 -0.585270 0.574026
v 2.718381 -1.148049 0.540720
v 2.446479 -1.666710 0.486636
v 2.080560 -2.121321 0.413850
v 1.634685 -2.494410 0.325158
v 1.125990 -2.771640 0.223974
v 0.574026 -2.942355 0.114180
v 0.540720 2.942355 0.223974
v 1.060659 2.771640 0.439341
v 1.539840 2.494410 0.637824
v 1.959843 2.121321 0.811794
v 2.304531 1.666710 0.954570
v 2.560659 1.148049 1.060659
v 2.718381 0.585270 1.125990
v 2.771637 -0.000000 1.148049
v 2.718381 -0.585270 1.125990
v 2.560659 -1.148049 1.060659
v 2.304531 -1.666710 0.954570
v 1.959843 -2.121321 0.811794
v 1.539840 -2.494410 0.637824
v 1.060659 -2.771640 0.439341
v 0.540720 -2.942355 0.223974
v 0.486636 2.942355 0.325158
v 0.954570 2.771640 0.637824
v 1.385817 2.494410 0.925974
v 1.763814 2.121321 1.178541
v 2.074023 1.666710 1.385820
v 2.304534 1.148049 1.539840
v 2.446479 0.585270 1.634685
v 2.494407 -0.000000 1.666710
v 2.446479 -0.585270 1.634685
v 2.304534 -1.148049 1.539840
v 2.074023 -1.666710 1.385820
v 1.763814 -2.121321 1.178541
v 1.385817 -2.494410 0.925974
v 0.954570 -2.771640 0.637824
v 0.486636 -2.942355 0.325158
v 0.413850 2.942355 0.413850
v 0.811794 2.771640 0.811794
v 1.178541 2.494410 1.178541
v 1.500000 2.121321 1.500000
v 1.763811 1.666710 1.763814
v 1.959843 1.148049 1.959843
v 2.080560 0.585270 2.080560
v 2.121318 -0.000000 2.121318
v 2.080560 -0.585270 2.080560
v 1.959843 -1.148049 1.959843
v 1.763811 -1.666710 1.763814
v 1.500000 -2.121321 1.500000
v 1.178541 -2.494410 1.178541
v 0.811794 -2.771640 0.811794
v 0.413850 -2.942355 0.413850
v -0.000000 -3.000000 0.000000
v 0.325158 2.942355 0.486636
v 0.637821 2.771640 0.954570
v 0.925974 2.494410 1.385820
v 1.178541 2.121321 1.763814
v 1.385817 1.666710 2.074023
v 1.539840 1.148049 2.304531
v 1.634685 0.585270 2.446479
v 1.666707 -0.000000 2.494407
v 1.634685 -0.585270 2.446479
v 1.539840 -1.148049 2.304531
v 1.385817 -1.666710 2.074023
v 1.178541 -2.121321 1.763814
v 0.925974 -2.494410 1.385820
v 0.637821 -2.771640 0.954570
v 0.325158 -2.942355 0.486636
v 0.223974 2.942355 0.540720
v 0.439341 2.771640 1.060659
v 0.637821 2.494410 1.539840
v 0.811794 2.121321 1.959843
v 0.954567 1.666710 2.304531
v 1.060659 1.148049 2.560659
v 1.125990 0.585270 2.718381
v 1.148049 -0.000000 2.771637
v 1.125990 -0.585270 2.718381
v 1.060659 -1.148049 2.560659
v 0.954567 -1.666710 2.304531
v 0.811794 -2.121321 1.959843
v 0.637821 -2.494410 1.539840
v 0.439341 -2.771640 1.060659
v 0.223974 -2.942355 0.540720
v 0.114180 2.942355 0.574026
v 0.223974 2.771640 1.125990
v 0.325158 2.494410 1.634685
v 0.413850 2.121321 2.080560
v 0.486633 1.666710 2.446479
v 0.540720 1.148049 2.718381
v 0.574023 0.585270 2.885817
v 0.585270 -0.000000 2.942352
v 0.574023 -0.585270 2.885817
v 0.540720 -1.148049 2.718381
v 0.486633 -1.666710 2.446479
v 0.413850 -2.121321 2.080560
v 0.325158 -2.494410 1.634685
v 0.223974 -2.771640 1.125990
v 0.114180 -2.942355 0.574026
v 0.000000 2.942355 0.585270
v 0.000000 2.771640 1.148049
v 0.000000 2.494410 1.666710
v 0.000000 2.121321 2.121321
v 0.000000 1.666710 2.494407
v 0.000000 1.148049 2.771637
v 0.000000 0.585270 2.942355
v 0.000000 0.000000 2.999997
v -0.000000 -0.585270 2.942355
v -0.000000 -1.148049 2.771637
v -0.000000 -1.666710 2.494407
v -0.000000 -2.121321 2.121321
v -0.000000 -2.494410 1.666710
v -0.000000 -2.771640 1.148049
v -0.000000 -2.942355 0.585270
v -0.114180 2.942355 0.574026
v -0.223974 2.771640 1.125990
v -0.325158 2.494410 1.634685
v -0.413850 2.121321 2.080560
v -0.486636 1.666710 2.446479
v -0.540720 1.148049 2.718381
v -0.574026 0.585270 2.885817
v -0.585273 0.000000 2.942352
v -0.574026 -0.585270 2.885817
v -0.540720 -1.148049 2.718381
v -0.486636 -1.666710 2.446479
v -0.413850 -2.121321 2.080560
v -0.325158 -2.494410 1.634685
v -0.223974 -2.771640 1.125990
v -0.114180 -2.942355 0.574026
v -0.223974 2.942355 0.540720
v -0.439341 2.771640 1.060659
v -0.637821 2.494410 1.539837
v -0.811794 2.121321 1.959843
v -0.954570 1.666710 2.304531
v -1.060659 1.148049 2.560659
v -1.125990 0.585270 2.718381
v -1.148049 0.000000 2.771634
v -1.125990 -0.585270 2.718381
v -1.060659 -1.148049 2.560659
v -0.954570 -1.666710 2.304531
v -0.811794 -2.121321 1.959843
v -0.637821 -2.494410 1.539837
v -0.439341 -2.771640 1.060659
v -0.223974 -2.942355 0.540720
v -0.325158 2.942355 0.486636
v -0.637821 2.771640 0.954567
v -0.925974 2.494410 1.385817
v -1.178541 2.121321 1.763814
v -1.385820 1.666710 2.074023
v -1.539840 1.148049 2.304531
v -1.634685 0.585270 2.446479
v -1.666710 0.000000 2.494404
v -1.634685 -0.585270 2.446479
v -1.539840 -1.148049 2.304531
v -1.385820 -1.666710 2.074023
v -1.178541 -2.121321 1.763814
v -0.925974 -2.494410 1.385817
v -0.637821 -2.771640 0.954567
v -0.325158 -2.942355 0.486636
v -0.413850 2.942355 0.413850
v -0.811794 2.771640 0.811794
v -1.178541 2.494410 1.178541
v -1.500000 2.121321 1.500000
v -1.763814 1.666710 1.763811
v -1.959843 1.148049 1.959843
v -2.080560 0.585270 2.080557
v -2.121318 0.000000 2.121318
v -2.080560 -0.585270 2.080557
v -1.959843 -1.148049 1.959843
v -1.763814 -1.666710 1.763811
v -1.500000 -2.121321 1.500000
v -1.178541 -2.494410 1.178541
v -0.811794 -2.771640 0.811794
v -0.413850 -2.942355 0.413850
v -0.486636 2.942355 0.325158
v -0.954570 2.771640 0.637821
v -1.385817 2.494410 0.925974
v -1.763814 2.121321 1.178541
v -2.074023 1.666710 1.385817
v -2.304531 1.148049 1.539840
v -2.446479 0.585270 1.634685
v -2.494407 0.000000 1.666707
v -2.446479 -0.585270 1.634685
v -2.304531 -1.148049 1.539840
v -2.074023 -1.666710 1.385817
v -1.763814 -2.121321 1.178541
v -1.385817 -2.494410 0.925974
v -0.954570 -2.771640 0.637821
v -0.486636 -2.942355 0.325158
v -0.540720 2.942355 0.223974
v -1.060659 2.771640 0.439338
v -1.539837 2.494410 0.637821
v -1.959843 2.121321 0.811794
v -2.304531 1.666710 0.954567
v -2.560659 1.148049 1.060659
v -2.718381 0.585270 1.125990
v -2.771637 0.000000 1.148049
v -2.718381 -0.585270 1.125990
v -2.560659 -1.148049 1.060659
v -2.304531 -1.666710 0.954567
v -1.959843 -2.121321 0.811794
v -1.539837 -2.494410 0.637821
v -1.060659 -2.771640 0.439338
v -0.540720 -2.942355 0.223974
v -0.574026 2.942355 0.114180
v -1.125990 2.771640 0.223974
v -1.634685 2.494410 0.325158
v -2.080560 2.121321 0.413850
v -2.446479 1.666710 0.486633
v -2.718381 1.148049 0.540720
v -2.885817 0.585270 0.574023
v -2.942352 0.000000 0.585270
v -2.885817 -0.585270 0.574023
v -2.718381 -1.148049 0.540720
v -2.446479 -1.666710 0.486633
v -2.080560 -2.121321 0.413850
v -1.634685 -2.494410 0.325158
v -1.125990 -2.771640 0.223974
v -0.574026 -2.942355 0.114180
v -0.585270 2.942355 0.000000
v -1.148049 2.771640 0.000000
v -2.121321 2.121321 0.000000
v -2.771637 1.148049 0.000000
v -2.771637 -1.148049 0.000000
v -2.121321 -2.121321 0.000000
v -1.666710 -2.494410 0.000000
v -1.148049 -2.771640 0.000000
v -0.585270 -2.942355 0.000000
vn 0.9904 -0.0976 0.0976
vn 0.0980 -0.9951 0.0097
vn 0.0980 0.9951 0.0097
vn 0.9904 0.0976 0.0975
vn 0.2902 -0.9566 0.0286
vn 0.9527 0.2890 0.0938
vn 0.4709 -0.8810 0.0464
vn 0.8786 0.4696 0.0865
vn 0.6332 -0.7715 0.0624
vn 0.7708 0.6326 0.0759
vn 0.7708 -0.6326 0.0759
vn 0.6332 0.7715 0.0624
vn 0.8786 -0.4696 0.0865
vn 0.4709 0.8810 0.0464
vn 0.9527 -0.2890 0.0938
vn 0.2902 0.9566 0.0286
vn 0.9161 -0.2890 0.2779
vn 0.2790 0.9566 0.0846
vn 0.9524 -0.0975 0.2889
vn 0.0942 -0.9951 0.0286
vn 0.0942 0.9951 0.0286
vn 0.9524 0.0975 0.2889
vn 0.2790 -0.9566 0.0846
vn 0.9161 0.2890 0.2779
vn 0.4528 -0.8810 0.1374
vn 0.8448 0.4696 0.2563
vn 0.6088 -0.7715 0.1847
vn 0.7412 0.6326 0.2248
vn 0.7412 -0.6326 0.2248
vn 0.6088 0.7715 0.1847
vn 0.8448 -0.4696 0.2563
vn 0.4528 0.8810 0.1374
vn 0.7786 0.4696 0.4162
vn 0.5611 -0.7715 0.2999
vn 0.6831 0.6326 0.3651
vn 0.6831 -0.6326 0.3651
vn 0.5611 0.7715 0.2999
vn 0.7786 -0.4696 0.4162
vn 0.4173 0.8810 0.2231
vn 0.8443 -0.2890 0.4513
vn 0.2571 0.9566 0.1374
vn 0.8777 -0.0975 0.4691
vn 0.0869 -0.9951 0.0464
vn 0.0869 0.9951 0.0464
vn 0.8777 0.0975 0.4691
vn 0.2571 -0.9566 0.1374
vn 0.8443 0.2890 0.4513
vn 0.4173 -0.8810 0.2231
vn 0.2254 0.9566 0.1850
vn 0.7693 -0.0975 0.6314
vn 0.0761 -0.9951 0.0625
vn 0.0761 0.9951 0.0625
vn 0.7693 0.0975 0.6314
vn 0.2254 -0.9566 0.1850
vn 0.7400 0.2890 0.6073
vn 0.3658 -0.8810 0.3002
vn 0.6825 0.4696 0.5601
vn 0.4918 -0.7715 0.4036
vn 0.5987 0.6326 0.4913
vn 0.5987 -0.6326 0.4913
vn 0.4918 0.7715 0.4036
vn 0.6825 -0.4696 0.5601
vn 0.3658 0.8810 0.3002
vn 0.7400 -0.2890 0.6073
vn 0.4036 -0.7715 0.4918
vn 0.4913 0.6326 0.5987
vn 0.4913 -0.6326 0.5987
vn 0.4036 0.7715 0.4918
vn 0.5601 -0.4696 0.6825
vn 0.3002 0.8810 0.3658
vn 0.6073 -0.2890 0.7400
vn 0.1850 0.9566 0.2254
vn 0.6314 -0.0976 0.7693
vn 0.0625 -0.9951 0.0761
vn 0.0625 0.9951 0.0761
vn 0.6314 0.0976 0.7693
vn 0.1850 -0.9566 0.2254
vn 0.6073 0.2890 0.7400
vn 0.3002 -0.8810 0.3658
vn 0.5601 0.4696 0.6825
vn 0.4691 -0.0976 0.8777
vn 0.0464 -0.9951 0.0869
vn 0.0464 0.9951 0.0869
vn 0.4691 0.0976 0.8777
vn 0.1374 -0.9566 0.2571
vn 0.4513 0.2890 0.8443
vn 0.2231 -0.8810 0.4173
vn 0.4162 0.4696 0.7786
vn 0.2999 -0.7715 0.5611
vn 0.3651 0.6326 0.6831
vn 0.3651 -0.6326 0.6831
vn 0.2999 0.7715 0.5611
vn 0.4162 -0.4696 0.7786
vn 0.2231 0.8810 0.4173
vn 0.4513 -0.2890 0.8443
vn 0.1374 0.9566 0.2571
vn 0.2248 0.6326 0.7412
vn 0.2248 -0.6326 0.7412
vn 0.1847 0.7715 0.6088
vn 0.2563 -0.4696 0.8448
vn 0.1374 0.8810 0.4528
vn 0.2779 -0.2890 0.9161
vn 0.0846 0.9566 0.2790
vn 0.2889 -0.0975 0.9524
vn 0.0286 -0.9951 0.0942
vn 0.0286 0.9951 0.0942
vn 0.2889 0.0975 0.9524
vn 0.0846 -0.9566 0.2790
vn 0.2779 0.2890 0.9161
vn 0.1374 -0.8810 0.4528
vn 0.2563 0.4696 0.8448
vn 0.1847 -0.7715 0.6088
vn 0.0097 0.9951 0.0980
vn 0.0975 0.0975 0.9904
vn 0.0286 -0.9566 0.2902
vn 0.0938 0.2890 0.9527
vn 0.0464 -0.8810 0.4709
vn 0.0865 0.4696 0.8786
vn 0.0624 -0.7715 0.6332
vn 0.0759 0.6326 0.7708
vn 0.0759 -0.6326 0.7708
vn 0.0624 0.7715 0.6332
vn 0.0865 -0.4696 0.8786
vn 0.0464 0.8810 0.4709
vn 0.0938 -0.2890 0.9527
vn 0.0286 0.9566 0.2902
vn 0.0975 -0.0975 0.9904
vn 0.0096 -0.9951 0.0980
vn -0.0624 0.7715 0.6332
vn -0.0865 -0.4696 0.8786
vn -0.0464 0.8810 0.4709
vn -0.0938 -0.2890 0.9527
vn -0.0286 0.9566 0.2902
vn -0.0975 -0.0976 0.9904
vn -0.0097 -0.9951 0.0980
vn -0.0097 0.9951 0.0980
vn -0.0975 0.0976 0.9904
vn -0.0286 -0.9566 0.2902
vn -0.0938 0.2890 0.9527
vn -0.0464 -0.8810 0.4709
vn -0.0865 0.4696 0.8786
vn -0.0624 -0.7715 0.6332
vn -0.0759 0.6326 0.7708
vn -0.0759 -0.6326 0.7708
vn -0.0846 -0.9566 0.2790
vn -0.2779 0.2890 0.9161
vn -0.1374 -0.8810 0.4528
vn -0.2563 0.4696 0.8448
vn -0.1847 -0.7715 0.6088
vn -0.2248 0.6326 0.7412
vn -0.2248 -0.6326 0.7412
vn -0.1847 0.7715 0.6088
vn -0.2563 -0.4696 0.8448
vn -0.1374 0.8810 0.4528
vn -0.2779 -0.2890 0.9161
vn -0.0846 0.9566 0.2790
vn -0.2889 -0.0975 0.9524
vn -0.0286 -0.9951 0.0942
vn -0.0286 0.9951 0.0942
vn -0.2889 0.0975 0.9524
vn -0.4162 -0.4696 0.7786
vn -0.2231 0.8810 0.4173
vn -0.4513 -0.2890 0.8443
vn -0.1374 0.9566 0.2571
vn -0.4691 -0.0975 0.8777
vn -0.0464 -0.9951 0.0869
vn -0.0464 0.9951 0.0869
vn -0.4691 0.0975 0.8777
vn -0.1374 -0.9566 0.2571
vn -0.4513 0.2890 0.8443
vn -0.2231 -0.8810 0.4173
vn -0.4162 0.4696 0.7786
vn -0.2999 -0.7715 0.5611
vn -0.3651 0.6326 0.6831
vn -0.3651 -0.6326 0.6831
vn -0.2999 0.7715 0.5611
vn -0.6073 0.2890 0.7400
vn -0.3002 -0.8810 0.3658
vn -0.5601 0.4696 0.6825
vn -0.4036 -0.7715 0.4918
vn -0.4913 0.6326 0.5987
vn -0.4913 -0.6326 0.5987
vn -0.4036 0.7715 0.4918
vn -0.5601 -0.4696 0.6825
vn -0.3002 0.8810 0.3658
vn -0.6073 -0.2890 0.7400
vn -0.1850 0.9566 0.2254
vn -0.6314 -0.0975 0.7693
vn -0.0625 -0.9951 0.0761
vn -0.0625 0.9951 0.0761
vn -0.6314 0.0975 0.7693
vn -0.1850 -0.9566 0.2254
vn -0.3658 0.8810 0.3002
vn -0.7400 -0.2890 0.6073
vn -0.2254 0.9565 0.1850
vn -0.7693 -0.0975 0.6314
vn -0.0761 -0.9951 0.0625
vn -0.0761 0.9951 0.0625
vn -0.7693 0.0975 0.6314
vn -0.2254 -0.9565 0.1850
vn -0.7400 0.2890 0.6073
vn -0.3658 -0.8810 0.3002
vn -0.6825 0.4696 0.5601
vn -0.4918 -0.7715 0.4036
vn -0.5987 0.6326 0.4913
vn -0.5987 -0.6326 0.4913
vn -0.4918 0.7715 0.4036
vn -0.6825 -0.4696 0.5601
vn -0.4173 -0.8810 0.2230
vn -0.7786 0.4696 0.4162
vn -0.5611 -0.7715 0.2999
vn -0.6831 0.6326 0.3651
vn -0.6831 -0.6326 0.3651
vn -0.5611 0.7715 0.2999
vn -0.7786 -0.4696 0.4162
vn -0.4173 0.8810 0.2230
vn -0.8443 -0.2890 0.4513
vn -0.2571 0.9566 0.1374
vn -0.8777 -0.0975 0.4691
vn -0.0869 -0.9951 0.0464
vn -0.0869 0.9951 0.0464
vn -0.8777 0.0975 0.4691
vn -0.2571 -0.9566 0.1374
vn -0.8443 0.2890 0.4513
vn -0.9161 -0.2890 0.2779
vn -0.2790 0.9566 0.0846
vn -0.9524 -0.0975 0.2889
vn -0.0942 -0.9951 0.0286
vn -0.0942 0.9951 0.0286
vn -0.9524 0.0975 0.2889
vn -0.2790 -0.9566 0.0846
vn -0.9161 0.2890 0.2779
vn -0.4528 -0.8810 0.1374
vn -0.8448 0.4696 0.2563
vn -0.6088 -0.7715 0.1847
vn -0.7412 0.6326 0.2248
vn -0.7412 -0.6326 0.2248
vn -0.6088 0.7715 0.1847
vn -0.8448 -0.4696 0.2563
vn -0.4528 0.8810 0.1374
vn -0.8786 0.4696 0.0865
vn -0.6332 -0.7715 0.0624
vn -0.7708 0.6326 0.0759
vn -0.7708 -0.6326 0.0759
vn -0.6332 0.7715 0.0624
vn -0.8786 -0.4696 0.0865
vn -0.4709 0.8810 0.0464
vn -0.9527 -0.2890 0.0938
vn -0.2902 0.9565 0.0286
vn -0.9904 -0.0976 0.0976
vn -0.0980 -0.9951 0.0097
vn -0.0980 0.9951 0.0097
vn -0.9904 0.0976 0.0976
vn -0.2902 -0.9566 0.0286
vn -0.9527 0.2890 0.0938
vn -0.4709 -0.8810 0.0464
vn -0.2902 0.9566 -0.0286
vn -0.9904 -0.0975 -0.0976
vn -0.0980 -0.9951 -0.0097
vn -0.0980 0.9951 -0.0097
vn -0.9904 0.0975 -0.0976
vn -0.2902 -0.9566 -0.0286
vn -0.9527 0.2890 -0.0938
vn -0.4709 -0.8810 -0.0464
vn -0.8786 0.4696 -0.0865
vn -0.6332 -0.7715 -0.0624
vn -0.7708 0.6326 -0.0759
vn -0.7708 -0.6326 -0.0759
vn -0.6332 0.7715 -0.0624
vn -0.8786 -0.4696 -0.0865
vn -0.4709 0.8810 -0.0464
vn -0.9527 -0.2890 -0.0938
vn -0.7412 0.6326 -0.2248
vn -0.7412 -0.6326 -0.2248
vn -0.6088 0.7715 -0.1847
vn -0.8448 -0.4696 -0.2563
vn -0.4528 0.8810 -0.1374
vn -0.9161 -0.2890 -0.2779
vn -0.2790 0.9566 -0.0846
vn -0.9524 -0.0976 -0.2889
vn -0.0942 -0.9951 -0.0286
vn -0.0942 0.9951 -0.0286
vn -0.9524 0.0976 -0.2889
vn -0.2790 -0.9566 -0.0846
vn -0.9161 0.2890 -0.2779
vn -0.4528 -0.8810 -0.1374
vn -0.8448 0.4696 -0.2563
vn -0.6088 -0.7715 -0.1847
vn -0.0869 -0.9951 -0.0464
vn -0.0869 0.9951 -0.0464
vn -0.8777 0.0975 -0.4691
vn -0.2571 -0.9566 -0.1374
vn -0.8443 0.2890 -0.4513
vn -0.4173 -0.8810 -0.2231
vn -0.7786 0.4696 -0.4162
vn -0.5611 -0.7715 -0.2999
vn -0.6831 0.6326 -0.3651
vn -0.6831 -0.6326 -0.3651
vn -0.5611 0.7715 -0.2999
vn -0.7786 -0.4696 -0.4162
vn -0.4173 0.8810 -0.2230
vn -0.8443 -0.2890 -0.4513
vn -0.2571 0.9566 -0.1374
vn -0.8777 -0.0975 -0.4691
vn -0.5987 -0.6326 -0.4913
vn -0.4918 0.7715 -0.4036
vn -0.6825 -0.4696 -0.5601
vn -0.3658 0.8810 -0.3002
vn -0.7400 -0.2890 -0.6073
vn -0.2254 0.9566 -0.1850
vn -0.7693 -0.0975 -0.6314
vn -0.0761 -0.9951 -0.0625
vn -0.0761 0.9951 -0.0625
vn -0.7693 0.0975 -0.6314
vn -0.2254 -0.9566 -0.1850
vn -0.7400 0.2890 -0.6073
vn -0.3658 -0.8810 -0.3002
vn -0.6825 0.4696 -0.5601
vn -0.4918 -0.7715 -0.4036
vn -0.5987 0.6326 -0.4913
vn -0.6314 0.0975 -0.7693
vn -0.1850 -0.9566 -0.2254
vn -0.6073 0.2890 -0.7400
vn -0.3002 -0.8810 -0.3658
vn -0.5601 0.4696 -0.6825
vn -0.4036 -0.7715 -0.4918
vn -0.4913 0.6326 -0.5987
vn -0.4913 -0.6326 -0.5987
vn -0.4036 0.7715 -0.4918
vn -0.5601 -0.4696 -0.6825
vn -0.3002 0.8810 -0.3658
vn -0.6073 -0.2890 -0.7400
vn -0.1850 0.9566 -0.2254
vn -0.6314 -0.0975 -0.7693
vn -0.0625 -0.9951 -0.0761
vn -0.0625 0.9951 -0.0761
vn -0.2999 0.7715 -0.5611
vn -0.4162 -0.4696 -0.7786
vn -0.2230 0.8810 -0.4173
vn -0.4513 -0.2890 -0.8443
vn -0.1374 0.9566 -0.2571
vn -0.4691 -0.0975 -0.8777
vn -0.0464 -0.9951 -0.0869
vn -0.0464 0.9951 -0.0869
vn -0.4691 0.0975 -0.8777
vn -0.1374 -0.9566 -0.2571
vn -0.4513 0.2890 -0.8443
vn -0.2231 -0.8810 -0.4173
vn -0.4162 0.4696 -0.7786
vn -0.2999 -0.7715 -0.5611
vn -0.3651 0.6326 -0.6831
vn -0.3651 -0.6326 -0.6831
vn -0.0846 -0.9566 -0.2790
vn -0.2779 0.2890 -0.9161
vn -0.1374 -0.8810 -0.4528
vn -0.2563 0.4696 -0.8448
vn -0.1847 -0.7715 -0.6088
vn -0.2248 0.6326 -0.7412
vn -0.2248 -0.6326 -0.7412
vn -0.1847 0.7715 -0.6088
vn -0.2563 -0.4696 -0.8448
vn -0.1374 0.8810 -0.4528
vn -0.2779 -0.2890 -0.9161
vn -0.0846 0.9566 -0.2790
vn -0.2889 -0.0975 -0.9524
vn -0.0286 -0.9951 -0.0942
vn -0.0286 0.9951 -0.0942
vn -0.2889 0.0975 -0.9524
vn -0.0865 -0.4696 -0.8786
vn -0.0464 0.8810 -0.4709
vn -0.0938 -0.2890 -0.9527
vn -0.0286 0.9566 -0.2902
vn -0.0976 -0.0975 -0.9904
vn -0.0097 -0.9951 -0.0980
vn -0.0097 0.9951 -0.0980
vn -0.0976 0.0975 -0.9904
vn -0.0286 -0.9566 -0.2902
vn -0.0938 0.2890 -0.9527
vn -0.0464 -0.8810 -0.4709
vn -0.0865 0.4696 -0.8786
vn -0.0624 -0.7715 -0.6332
vn -0.0759 0.6326 -0.7708
vn -0.0759 -0.6326 -0.7708
vn -0.0624 0.7715 -0.6332
vn 0.0938 0.2890 -0.9527
vn 0.0464 -0.8810 -0.4709
vn 0.0865 0.4696 -0.8786
vn 0.0624 -0.7715 -0.6332
vn 0.0759 0.6326 -0.7708
vn 0.0759 -0.6326 -0.7708
vn 0.0624 0.7715 -0.6332
vn 0.0865 -0.4696 -0.8786
vn 0.0464 0.8810 -0.4709
vn 0.0938 -0.2890 -0.9527
vn 0.0286 0.9566 -0.2902
vn 0.0976 -0.0975 -0.9904
vn 0.0096 -0.9951 -0.0980
vn 0.0097 0.9951 -0.0980
vn 0.0976 0.0975 -0.9904
vn 0.0286 -0.9566 -0.2902
vn 0.1374 0.8810 -0.4528
vn 0.2779 -0.2890 -0.9161
vn 0.0846 0.9566 -0.2790
vn 0.2889 -0.0975 -0.9524
vn 0.0286 -0.9951 -0.0942
vn 0.0286 0.9951 -0.0942
vn 0.2889 0.0975 -0.9524
vn 0.0846 -0.9566 -0.2790
vn 0.2779 0.2890 -0.9161
vn 0.1374 -0.8810 -0.4528
vn 0.2563 0.4696 -0.8448
vn 0.1847 -0.7715 -0.6088
vn 0.2248 0.6326 -0.7412
vn 0.2248 -0.6326 -0.7412
vn 0.1847 0.7715 -0.6088
vn 0.2563 -0.4696 -0.8448
vn 0.4162 0.4696 -0.7786
vn 0.2999 -0.7715 -0.5611
vn 0.3651 0.6326 -0.6831
vn 0.3651 -0.6326 -0.6831
vn 0.2999 0.7715 -0.5611
vn 0.4162 -0.4696 -0.7786
vn 0.2231 0.8810 -0.4173
vn 0.4513 -0.2890 -0.8443
vn 0.1374 0.9566 -0.2571
vn 0.4691 -0.0975 -0.8777
vn 0.0464 -0.9951 -0.0869
vn 0.0464 0.9951 -0.0869
vn 0.4691 0.0975 -0.8777
vn 0.1374 -0.9566 -0.2571
vn 0.4513 0.2890 -0.8443
vn 0.2231 -0.8810 -0.4173
vn 0.1850 0.9566 -0.2254
vn 0.6314 -0.0975 -0.7693
vn 0.0625 -0.9951 -0.0761
vn 0.0625 0.9951 -0.0761
vn 0.6314 0.0975 -0.7693
vn 0.1850 -0.9566 -0.2254
vn 0.6073 0.2890 -0.7400
vn 0.3002 -0.8810 -0.3658
vn 0.5601 0.4696 -0.6825
vn 0.4036 -0.7715 -0.4918
vn 0.4913 0.6326 -0.5987
vn 0.4913 -0.6326 -0.5987
vn 0.4036 0.7715 -0.4918
vn 0.5601 -0.4696 -0.6825
vn 0.3002 0.8810 -0.3658
vn 0.6073 -0.2890 -0.7400
vn 0.4918 -0.7715 -0.4036
vn 0.5987 0.6326 -0.4913
vn 0.5987 -0.6326 -0.4913
vn 0.4918 0.7715 -0.4036
vn 0.6825 -0.4696 -0.5601
vn 0.3658 0.8810 -0.3002
vn 0.7400 -0.2890 -0.6073
vn 0.2254 0.9566 -0.1850
vn 0.7693 -0.0975 -0.6314
vn 0.0761 -0.9951 -0.0625
vn 0.0761 0.9951 -0.0625
vn 0.7693 0.0975 -0.6314
vn 0.2254 -0.9566 -0.1850
vn 0.7400 0.2890 -0.6073
vn 0.3658 -0.8810 -0.3002
vn 0.6825 0.4696 -0.5601
vn 0.8777 -0.0975 -0.4691
vn 0.0869 -0.9951 -0.0464
vn 0.0869 0.9951 -0.0464
vn 0.8777 0.0975 -0.4691
vn 0.2571 -0.9566 -0.1374
vn 0.8443 0.2890 -0.4513
vn 0.4173 -0.8810 -0.2230
vn 0.7786 0.4696 -0.4162
vn 0.5611 -0.7715 -0.2999
vn 0.6831 0.6326 -0.3651
vn 0.6831 -0.6326 -0.3651
vn 0.5611 0.7715 -0.2999
vn 0.7786 -0.4696 -0.4162
vn 0.4173 0.8810 -0.2230
vn 0.8443 -0.2890 -0.4513
vn 0.2571 0.9565 -0.1374
vn 0.7412 0.6326 -0.2248
vn 0.7412 -0.6326 -0.2248
vn 0.6088 0.7715 -0.1847
vn 0.8448 -0.4696 -0.2563
vn 0.4528 0.8810 -0.1374
vn 0.9161 -0.2890 -0.2779
vn 0.2790 0.9566 -0.0846
vn 0.9524 -0.0975 -0.2889
vn 0.0942 -0.9951 -0.0286
vn 0.0942 0.9951 -0.0286
vn 0.9524 0.0975 -0.2889
vn 0.2790 -0.9566 -0.0846
vn 0.9161 0.2890 -0.2779
vn 0.4528 -0.8810 -0.1374
vn 0.8448 0.4696 -0.2563
vn 0.6088 -0.7715 -0.1847
vn 0.0980 -0.9951 -0.0097
vn 0.0980 0.9951 -0.0097
vn 0.9904 0.0975 -0.0976
vn 0.2902 -0.9566 -0.0286
vn 0.9527 0.2890 -0.0938
vn 0.4709 -0.8810 -0.0464
vn 0.8786 0.4696 -0.0865
vn 0.6332 -0.7715 -0.0624
vn 0.7708 0.6326 -0.0759
vn 0.7708 -0.6326 -0.0759
vn 0.6332 0.7715 -0.0624
vn 0.8786 -0.4696 -0.0865
vn 0.4709 0.8810 -0.0464
vn 0.9527 -0.2890 -0.0938
vn 0.2902 0.9565 -0.0286
vn 0.9904 -0.0975 -0.0976
vn 0.9904 -0.0975 0.0975
vn 0.9904 0.0975 0.0976
vn 0.8449 0.4696 0.2563
vn 0.8449 -0.4696 0.2563
vn 0.4173 0.8810 0.2230
vn 0.4173 -0.8810 0.2230
vn 0.2254 0.9565 0.1850
vn 0.7693 -0.0976 0.6314
vn 0.7693 0.0976 0.6314
vn 0.2254 -0.9565 0.1850
vn 0.4691 -0.0975 0.8777
vn 0.4691 0.0975 0.8777
vn 0.2230 -0.8810 0.4173
vn 0.2230 0.8810 0.4173
vn 0.0976 0.0976 0.9904
vn 0.0976 -0.0976 0.9904
vn -0.0976 -0.0975 0.9904
vn -0.0976 0.0975 0.9904
vn -0.2563 0.4696 0.8449
vn -0.2563 -0.4696 0.8449
vn -0.2230 0.8810 0.4173
vn -0.2230 -0.8810 0.4173
vn -0.2254 0.9566 0.1850
vn -0.2254 -0.9566 0.1850
vn -0.9524 -0.0976 0.2889
vn -0.9524 0.0976 0.2889
vn -0.2902 0.9566 0.0286
vn -0.9904 -0.0975 0.0975
vn -0.9904 0.0975 0.0975
vn -0.9904 -0.0976 -0.0975
vn -0.9904 0.0976 -0.0975
vn -0.9524 -0.0975 -0.2889
vn -0.9524 0.0975 -0.2889
vn -0.4173 -0.8810 -0.2230
vn -0.4173 0.8810 -0.2231
vn -0.2254 0.9565 -0.1850
vn -0.2254 -0.9565 -0.1850
vn -0.4692 -0.0975 -0.8777
vn -0.4692 0.0975 -0.8777
vn -0.2230 -0.8810 -0.4173
vn 0.2230 0.8810 -0.4173
vn 0.2230 -0.8810 -0.4173
vn 0.8777 -0.0975 -0.4692
vn 0.8777 0.0975 -0.4692
vn 0.2571 0.9566 -0.1374
vn 0.9904 0.0976 -0.0976
vn 0.2902 0.9566 -0.0286
vn 0.9904 -0.0976 -0.0976
vt 0.718750 0.500000
vt 0.750000 0.562500
vt 0.750000 0.500000
vt 0.750000 0.937500
vt 0.718750 0.937500
vt 0.734375 1.000000
vt 0.734375 0.000000
vt 0.718750 0.062500
vt 0.750000 0.062500
vt 0.718750 0.437500
vt 0.750000 0.437500
vt 0.750000 0.875000
vt 0.718750 0.375000
vt 0.750000 0.375000
vt 0.750000 0.812500
vt 0.718750 0.875000
vt 0.718750 0.312500
vt 0.750000 0.312500
vt 0.750000 0.750000
vt 0.718750 0.812500
vt 0.750000 0.250000
vt 0.718750 0.687500
vt 0.750000 0.687500
vt 0.718750 0.187500
vt 0.750000 0.187500
vt 0.750000 0.625000
vt 0.718750 0.125000
vt 0.750000 0.125000
vt 0.718750 0.625000
vt 0.718750 0.562500
vt 0.687500 0.625000
vt 0.687500 0.062500
vt 0.687500 0.500000
vt 0.687500 0.937500
vt 0.703125 1.000000
vt 0.703125 0.000000
vt 0.687500 0.437500
vt 0.687500 0.875000
vt 0.687500 0.375000
vt 0.687500 0.812500
vt 0.687500 0.750000
vt 0.718750 0.750000
vt 0.718750 0.250000
vt 0.687500 0.312500
vt 0.687500 0.687500
vt 0.687500 0.250000
vt 0.687500 0.187500
vt 0.656250 0.375000
vt 0.656250 0.750000
vt 0.656250 0.312500
vt 0.656250 0.687500
vt 0.656250 0.250000
vt 0.656250 0.625000
vt 0.687500 0.125000
vt 0.656250 0.187500
vt 0.687500 0.562500
vt 0.656250 0.125000
vt 0.656250 0.562500
vt 0.656250 0.937500
vt 0.671875 1.000000
vt 0.671875 0.000000
vt 0.656250 0.062500
vt 0.656250 0.437500
vt 0.656250 0.875000
vt 0.656250 0.812500
vt 0.625000 0.125000
vt 0.656250 0.500000
vt 0.625000 0.562500
vt 0.625000 0.937500
vt 0.640625 1.000000
vt 0.640625 0.000000
vt 0.625000 0.062500
vt 0.625000 0.437500
vt 0.625000 0.875000
vt 0.625000 0.375000
vt 0.625000 0.812500
vt 0.625000 0.750000
vt 0.625000 0.250000
vt 0.625000 0.625000
vt 0.625000 0.187500
vt 0.593750 0.750000
vt 0.593750 0.250000
vt 0.625000 0.312500
vt 0.625000 0.687500
vt 0.593750 0.625000
vt 0.593750 0.125000
vt 0.593750 0.062500
vt 0.625000 0.500000
vt 0.593750 0.562500
vt 0.593750 0.937500
vt 0.609375 1.000000
vt 0.609375 0.000000
vt 0.593750 0.437500
vt 0.593750 0.375000
vt 0.593750 0.875000
vt 0.593750 0.500000
vt 0.562500 0.562500
vt 0.562500 0.937500
vt 0.578125 1.000000
vt 0.578125 0.000000
vt 0.562500 0.062500
vt 0.562500 0.437500
vt 0.562500 0.875000
vt 0.562500 0.375000
vt 0.562500 0.812500
vt 0.593750 0.812500
vt 0.593750 0.312500
vt 0.562500 0.750000
vt 0.562500 0.250000
vt 0.593750 0.687500
vt 0.593750 0.187500
vt 0.562500 0.625000
vt 0.562500 0.187500
vt 0.562500 0.125000
vt 0.531250 0.250000
vt 0.562500 0.312500
vt 0.562500 0.687500
vt 0.531250 0.750000
vt 0.531250 0.625000
vt 0.531250 0.125000
vt 0.531250 0.062500
vt 0.562500 0.500000
vt 0.531250 0.562500
vt 0.531250 0.937500
vt 0.546875 1.000000
vt 0.546875 0.000000
vt 0.531250 0.437500
vt 0.531250 0.875000
vt 0.531250 0.375000
vt 0.515625 0.000000
vt 0.500000 0.062500
vt 0.500000 0.437500
vt 0.531250 0.500000
vt 0.500000 0.875000
vt 0.500000 0.375000
vt 0.500000 0.812500
vt 0.531250 0.812500
vt 0.531250 0.312500
vt 0.500000 0.750000
vt 0.500000 0.250000
vt 0.531250 0.687500
vt 0.531250 0.187500
vt 0.500000 0.625000
vt 0.500000 0.187500
vt 0.500000 0.562500
vt 0.500000 0.937500
vt 0.515625 1.000000
vt 0.468750 0.250000
vt 0.468750 0.625000
vt 0.500000 0.687500
vt 0.468750 0.125000
vt 0.500000 0.125000
vt 0.468750 0.062500
vt 0.500000 0.500000
vt 0.468750 0.562500
vt 0.468750 0.937500
vt 0.484375 1.000000
vt 0.484375 0.000000
vt 0.468750 0.437500
vt 0.468750 0.375000
vt 0.468750 0.875000
vt 0.500000 0.312500
vt 0.468750 0.750000
vt 0.437500 0.875000
vt 0.437500 0.375000
vt 0.437500 0.812500
vt 0.468750 0.812500
vt 0.468750 0.312500
vt 0.437500 0.750000
vt 0.437500 0.250000
vt 0.468750 0.687500
vt 0.468750 0.187500
vt 0.437500 0.625000
vt 0.437500 0.187500
vt 0.437500 0.062500
vt 0.468750 0.500000
vt 0.437500 0.562500
vt 0.437500 0.937500
vt 0.453125 1.000000
vt 0.453125 0.000000
vt 0.437500 0.437500
vt 0.406250 0.625000
vt 0.437500 0.687500
vt 0.437500 0.125000
vt 0.406250 0.187500
vt 0.406250 0.125000
vt 0.437500 0.500000
vt 0.406250 0.562500
vt 0.406250 0.937500
vt 0.421875 1.000000
vt 0.421875 0.000000
vt 0.406250 0.062500
vt 0.406250 0.437500
vt 0.406250 0.875000
vt 0.406250 0.375000
vt 0.406250 0.812500
vt 0.437500 0.312500
vt 0.406250 0.750000
vt 0.406250 0.250000
vt 0.375000 0.375000
vt 0.375000 0.812500
vt 0.406250 0.312500
vt 0.375000 0.750000
vt 0.375000 0.250000
vt 0.406250 0.687500
vt 0.375000 0.625000
vt 0.375000 0.187500
vt 0.375000 0.125000
vt 0.406250 0.500000
vt 0.375000 0.562500
vt 0.375000 0.937500
vt 0.390625 1.000000
vt 0.390625 0.000000
vt 0.375000 0.062500
vt 0.375000 0.437500
vt 0.375000 0.875000
vt 0.343750 0.125000
vt 0.343750 0.625000
vt 0.343750 0.062500
vt 0.375000 0.500000
vt 0.343750 0.562500
vt 0.343750 0.937500
vt 0.359375 1.000000
vt 0.359375 0.000000
vt 0.343750 0.437500
vt 0.343750 0.375000
vt 0.343750 0.875000
vt 0.375000 0.312500
vt 0.343750 0.750000
vt 0.343750 0.250000
vt 0.375000 0.687500
vt 0.312500 0.812500
vt 0.343750 0.812500
vt 0.343750 0.312500
vt 0.312500 0.375000
vt 0.312500 0.750000
vt 0.312500 0.250000
vt 0.343750 0.687500
vt 0.343750 0.187500
vt 0.312500 0.625000
vt 0.312500 0.187500
vt 0.312500 0.125000
vt 0.343750 0.500000
vt 0.312500 0.562500
vt 0.312500 0.937500
vt 0.328125 1.000000
vt 0.328125 0.000000
vt 0.312500 0.062500
vt 0.312500 0.437500
vt 0.312500 0.875000
vt 0.281250 0.625000
vt 0.281250 0.125000
vt 0.312500 0.500000
vt 0.281250 0.562500
vt 0.281250 0.937500
vt 0.296875 1.000000
vt 0.296875 0.000000
vt 0.281250 0.062500
vt 0.281250 0.437500
vt 0.281250 0.875000
vt 0.281250 0.375000
vt 0.281250 0.812500
vt 0.312500 0.312500
vt 0.281250 0.750000
vt 0.281250 0.250000
vt 0.312500 0.687500
vt 0.281250 0.187500
vt 0.281250 0.312500
vt 0.250000 0.375000
vt 0.250000 0.750000
vt 0.250000 0.250000
vt 0.281250 0.687500
vt 0.250000 0.625000
vt 0.250000 0.187500
vt 0.250000 0.062500
vt 0.281250 0.500000
vt 0.250000 0.562500
vt 0.250000 0.937500
vt 0.265625 1.000000
vt 0.265625 0.000000
vt 0.250000 0.437500
vt 0.250000 0.812500
vt 0.218750 0.062500
vt 0.250000 0.125000
vt 0.250000 0.500000
vt 0.218750 0.562500
vt 0.218750 0.937500
vt 0.234375 1.000000
vt 0.234375 0.000000
vt 0.218750 0.437500
vt 0.250000 0.875000
vt 0.218750 0.375000
vt 0.218750 0.875000
vt 0.250000 0.312500
vt 0.218750 0.750000
vt 0.218750 0.250000
vt 0.250000 0.687500
vt 0.218750 0.625000
vt 0.218750 0.125000
vt 0.187500 0.250000
vt 0.218750 0.312500
vt 0.218750 0.687500
vt 0.187500 0.750000
vt 0.218750 0.187500
vt 0.187500 0.625000
vt 0.187500 0.187500
vt 0.187500 0.062500
vt 0.218750 0.500000
vt 0.187500 0.562500
vt 0.187500 0.937500
vt 0.203125 1.000000
vt 0.203125 0.000000
vt 0.187500 0.437500
vt 0.187500 0.375000
vt 0.187500 0.812500
vt 0.218750 0.812500
vt 0.156250 0.937500
vt 0.171875 1.000000
vt 0.171875 0.000000
vt 0.156250 0.062500
vt 0.156250 0.437500
vt 0.187500 0.500000
vt 0.156250 0.875000
vt 0.187500 0.875000
vt 0.156250 0.375000
vt 0.156250 0.812500
vt 0.187500 0.312500
vt 0.156250 0.750000
vt 0.156250 0.250000
vt 0.187500 0.687500
vt 0.156250 0.625000
vt 0.156250 0.125000
vt 0.187500 0.125000
vt 0.156250 0.562500
vt 0.156250 0.687500
vt 0.125000 0.750000
vt 0.156250 0.187500
vt 0.125000 0.250000
vt 0.125000 0.625000
vt 0.125000 0.125000
vt 0.156250 0.500000
vt 0.125000 0.562500
vt 0.125000 0.937500
vt 0.140625 1.000000
vt 0.140625 0.000000
vt 0.125000 0.062500
vt 0.125000 0.437500
vt 0.125000 0.875000
vt 0.125000 0.375000
vt 0.156250 0.312500
vt 0.093750 0.437500
vt 0.125000 0.500000
vt 0.093750 0.937500
vt 0.093750 0.375000
vt 0.125000 0.812500
vt 0.093750 0.875000
vt 0.125000 0.312500
vt 0.093750 0.750000
vt 0.093750 0.250000
vt 0.125000 0.687500
vt 0.125000 0.187500
vt 0.093750 0.625000
vt 0.093750 0.125000
vt 0.093750 0.062500
vt 0.093750 0.562500
vt 0.109375 1.000000
vt 0.109375 0.000000
vt 0.093750 0.187500
vt 0.062500 0.250000
vt 0.062500 0.625000
vt 0.093750 0.687500
vt 0.062500 0.125000
vt 0.093750 0.500000
vt 0.062500 0.562500
vt 0.062500 0.937500
vt 0.078125 1.000000
vt 0.078125 0.000000
vt 0.062500 0.062500
vt 0.062500 0.437500
vt 0.062500 0.875000
vt 0.062500 0.375000
vt 0.062500 0.812500
vt 0.093750 0.812500
vt 0.093750 0.312500
vt 0.062500 0.750000
vt 0.031250 0.875000
vt 0.031250 0.375000
vt 0.062500 0.312500
vt 0.031250 0.750000
vt 0.031250 0.250000
vt 0.062500 0.687500
vt 0.062500 0.187500
vt 0.031250 0.625000
vt 0.031250 0.125000
vt 0.062500 0.500000
vt 0.031250 0.562500
vt 0.031250 0.937500
vt 0.046875 1.000000
vt 0.046875 0.000000
vt 0.031250 0.062500
vt 0.031250 0.437500
vt 0.000000 0.625000
vt 0.031250 0.687500
vt 0.000000 0.125000
vt 0.031250 0.187500
vt 0.031250 0.500000
vt 0.000000 0.562500
vt 0.000000 0.937500
vt 0.015625 1.000000
vt 0.015625 0.000000
vt 0.000000 0.062500
vt 0.000000 0.437500
vt 0.000000 0.875000
vt 0.000000 0.375000
vt 0.031250 0.812500
vt 0.031250 0.312500
vt 0.000000 0.750000
vt 0.000000 0.250000
vt 0.968750 0.375000
vt 1.000000 0.437500
vt 1.000000 0.375000
vt 1.000000 0.812500
vt 0.968750 0.875000
vt 1.000000 0.875000
vt 1.000000 0.312500
vt 0.968750 0.750000
vt 1.000000 0.750000
vt 0.968750 0.250000
vt 1.000000 0.250000
vt 1.000000 0.687500
vt 1.000000 0.187500
vt 0.968750 0.625000
vt 1.000000 0.625000
vt 0.968750 0.125000
vt 1.000000 0.125000
vt 1.000000 0.562500
vt 0.968750 0.062500
vt 1.000000 0.062500
vt 1.000000 0.500000
vt 0.968750 0.562500
vt 1.000000 0.937500
vt 0.968750 0.937500
vt 0.984375 1.000000
vt 0.984375 0.000000
vt 0.968750 0.437500
vt 0.937500 0.125000
vt 0.968750 0.187500
vt 0.937500 0.625000
vt 0.937500 0.062500
vt 0.968750 0.500000
vt 0.937500 0.562500
vt 0.937500 0.937500
vt 0.953125 1.000000
vt 0.953125 0.000000
vt 0.937500 0.437500
vt 0.937500 0.375000
vt 0.968750 0.812500
vt 0.937500 0.875000
vt 0.968750 0.312500
vt 0.937500 0.750000
vt 0.937500 0.250000
vt 0.968750 0.687500
vt 0.937500 0.312500
vt 0.906250 0.375000
vt 0.906250 0.750000
vt 0.937500 0.812500
vt 0.906250 0.250000
vt 0.937500 0.687500
vt 0.937500 0.187500
vt 0.906250 0.625000
vt 0.906250 0.125000
vt 0.937500 0.500000
vt 0.906250 0.562500
vt 0.906250 0.937500
vt 0.921875 1.000000
vt 0.921875 0.000000
vt 0.906250 0.062500
vt 0.906250 0.437500
vt 0.906250 0.875000
vt 0.875000 0.062500
vt 0.906250 0.500000
vt 0.875000 0.562500
vt 0.875000 0.937500
vt 0.890625 1.000000
vt 0.890625 0.000000
vt 0.875000 0.437500
vt 0.875000 0.875000
vt 0.875000 0.375000
vt 0.906250 0.812500
vt 0.906250 0.312500
vt 0.875000 0.750000
vt 0.875000 0.250000
vt 0.906250 0.687500
vt 0.906250 0.187500
vt 0.875000 0.625000
vt 0.875000 0.125000
vt 0.843750 0.750000
vt 0.875000 0.812500
vt 0.843750 0.250000
vt 0.875000 0.312500
vt 0.875000 0.687500
vt 0.875000 0.187500
vt 0.843750 0.625000
vt 0.843750 0.125000
vt 0.875000 0.500000
vt 0.843750 0.562500
vt 0.843750 0.937500
vt 0.859375 1.000000
vt 0.859375 0.000000
vt 0.843750 0.062500
vt 0.843750 0.437500
vt 0.843750 0.875000
vt 0.843750 0.375000
vt 0.843750 0.500000
vt 0.812500 0.562500
vt 0.812500 0.937500
vt 0.828125 1.000000
vt 0.828125 0.000000
vt 0.812500 0.062500
vt 0.812500 0.437500
vt 0.812500 0.375000
vt 0.843750 0.812500
vt 0.812500 0.875000
vt 0.843750 0.312500
vt 0.812500 0.750000
vt 0.812500 0.250000
vt 0.843750 0.687500
vt 0.843750 0.187500
vt 0.812500 0.625000
vt 0.812500 0.125000
vt 0.781250 0.250000
vt 0.812500 0.312500
vt 0.812500 0.687500
vt 0.781250 0.750000
vt 0.812500 0.187500
vt 0.781250 0.625000
vt 0.781250 0.125000
vt 0.812500 0.500000
vt 0.781250 0.562500
vt 0.781250 0.937500
vt 0.796875 1.000000
vt 0.796875 0.000000
vt 0.781250 0.062500
vt 0.781250 0.437500
vt 0.781250 0.875000
vt 0.781250 0.375000
vt 0.812500 0.812500
vt 0.765625 1.000000
vt 0.765625 0.000000
vt 0.781250 0.500000
vt 0.781250 0.812500
vt 0.781250 0.312500
vt 0.781250 0.687500
vt 0.781250 0.187500
vt 0.000000 0.687500
vt 0.000000 0.187500
vt 0.000000 0.500000
vt 0.000000 0.812500
vt 0.000000 0.312500
s 0
usemtl マテリアル.002
f 14/1/1 3/2/1 4/3/1
f 474/4/2 7/5/2 82/6/2
f 308/7/3 21/8/3 482/9/3
f 15/10/4 4/3/4 5/11/4
f 475/12/5 7/5/5 474/4/5
f 16/13/6 5/11/6 478/14/6
f 1/15/7 8/16/7 475/12/7
f 17/17/8 478/14/8 6/18/8
f 476/19/9 9/20/9 1/15/9
f 479/21/10 17/17/10 6/18/10
f 11/22/11 476/19/11 2/23/11
f 19/24/12 479/21/12 480/25/12
f 477/26/13 11/22/13 2/23/13
f 20/27/14 480/25/14 481/28/14
f 3/2/15 12/29/15 477/26/15
f 21/8/16 481/28/16 482/9/16
f 13/30/17 27/31/17 12/29/17
f 36/32/18 20/27/18 21/8/18
f 29/33/19 13/30/19 14/1/19
f 7/5/20 22/34/20 82/35/20
f 308/36/21 36/32/21 21/8/21
f 30/37/22 14/1/22 15/10/22
f 23/38/23 7/5/23 8/16/23
f 31/39/24 15/10/24 16/13/24
f 24/40/25 8/16/25 9/20/25
f 17/17/26 31/39/26 16/13/26
f 25/41/27 9/20/27 10/42/27
f 18/43/28 32/44/28 17/17/28
f 26/45/29 10/42/29 11/22/29
f 19/24/30 33/46/30 18/43/30
f 27/31/31 11/22/31 12/29/31
f 20/27/32 34/47/32 19/24/32
f 32/44/33 46/48/33 31/39/33
f 40/49/34 24/40/34 25/41/34
f 33/46/35 47/50/35 32/44/35
f 41/51/36 25/41/36 26/45/36
f 34/47/37 48/52/37 33/46/37
f 42/53/38 26/45/38 27/31/38
f 35/54/39 49/55/39 34/47/39
f 28/56/40 42/53/40 27/31/40
f 36/32/41 50/57/41 35/54/41
f 29/33/42 43/58/42 28/56/42
f 22/34/43 37/59/43 82/60/43
f 308/61/44 51/62/44 36/32/44
f 45/63/45 29/33/45 30/37/45
f 38/64/46 22/34/46 23/38/46
f 46/48/47 30/37/47 31/39/47
f 39/65/48 23/38/48 24/40/48
f 51/62/49 65/66/49 50/57/49
f 44/67/50 58/68/50 43/58/50
f 37/59/51 52/69/51 82/70/51
f 308/71/52 66/72/52 51/62/52
f 60/73/53 44/67/53 45/63/53
f 53/74/54 37/59/54 38/64/54
f 61/75/55 45/63/55 46/48/55
f 54/76/56 38/64/56 39/65/56
f 47/50/57 61/75/57 46/48/57
f 55/77/58 39/65/58 40/49/58
f 63/78/59 47/50/59 48/52/59
f 41/51/60 55/77/60 40/49/60
f 49/55/61 63/78/61 48/52/61
f 57/79/62 41/51/62 42/53/62
f 50/57/63 64/80/63 49/55/63
f 43/58/64 57/79/64 42/53/64
f 70/81/65 54/76/65 55/77/65
f 78/82/66 62/83/66 63/78/66
f 56/84/67 70/81/67 55/77/67
f 64/80/68 78/82/68 63/78/68
f 72/85/69 56/84/69 57/79/69
f 80/86/70 64/80/70 65/66/70
f 58/68/71 72/85/71 57/79/71
f 81/87/72 65/66/72 66/72/72
f 59/88/73 73/89/73 58/68/73
f 52/69/74 67/90/74 82/91/74
f 308/92/75 81/87/75 66/72/75
f 75/93/76 59/88/76 60/73/76
f 53/74/77 67/90/77 52/69/77
f 76/94/78 60/73/78 61/75/78
f 54/76/79 68/95/79 53/74/79
f 62/83/80 76/94/80 61/75/80
f 74/96/81 89/97/81 73/89/81
f 67/90/82 83/98/82 82/99/82
f 308/100/83 97/101/83 81/87/83
f 91/102/84 74/96/84 75/93/84
f 84/103/85 67/90/85 68/95/85
f 92/104/86 75/93/86 76/94/86
f 85/105/87 68/95/87 69/106/87
f 77/107/88 92/104/88 76/94/88
f 86/108/89 69/106/89 70/81/89
f 94/109/90 77/107/90 78/82/90
f 71/110/91 86/108/91 70/81/91
f 79/111/92 94/109/92 78/82/92
f 88/112/93 71/110/93 72/85/93
f 80/86/94 95/113/94 79/111/94
f 73/89/95 88/112/95 72/85/95
f 81/87/96 96/114/96 80/86/96
f 109/115/97 93/116/97 94/109/97
f 87/117/98 101/118/98 86/108/98
f 95/113/99 109/115/99 94/109/99
f 103/119/100 87/117/100 88/112/100
f 111/120/101 95/113/101 96/114/101
f 89/97/102 103/119/102 88/112/102
f 112/121/103 96/114/103 97/101/103
f 90/122/104 104/123/104 89/97/104
f 83/98/105 98/124/105 82/125/105
f 308/126/106 112/121/106 97/101/106
f 106/127/107 90/122/107 91/102/107
f 99/128/108 83/98/108 84/103/108
f 107/129/109 91/102/109 92/104/109
f 85/105/110 99/128/110 84/103/110
f 93/116/111 107/129/111 92/104/111
f 101/118/112 85/105/112 86/108/112
f 308/130/113 127/131/113 112/121/113
f 121/132/114 105/133/114 106/127/114
f 114/134/115 98/124/115 99/128/115
f 122/135/116 106/127/116 107/129/116
f 115/136/117 99/128/117 100/137/117
f 108/138/118 122/135/118 107/129/118
f 116/139/119 100/137/119 101/118/119
f 124/140/120 108/138/120 109/115/120
f 102/141/121 116/139/121 101/118/121
f 110/142/122 124/140/122 109/115/122
f 118/143/123 102/141/123 103/119/123
f 111/120/124 125/144/124 110/142/124
f 104/123/125 118/143/125 103/119/125
f 127/131/126 111/120/126 112/121/126
f 105/133/127 119/145/127 104/123/127
f 98/124/128 113/146/128 82/147/128
f 125/144/129 139/148/129 124/140/129
f 133/149/130 117/150/130 118/143/130
f 141/151/131 125/144/131 126/152/131
f 119/145/132 133/149/132 118/143/132
f 142/153/133 126/152/133 127/131/133
f 120/154/134 134/155/134 119/145/134
f 113/146/135 128/156/135 82/157/135
f 308/158/136 142/153/136 127/131/136
f 136/159/137 120/154/137 121/132/137
f 114/134/138 128/156/138 113/146/138
f 137/160/139 121/132/139 122/135/139
f 115/136/140 129/161/140 114/134/140
f 123/162/141 137/160/141 122/135/141
f 131/163/142 115/136/142 116/139/142
f 139/148/143 123/162/143 124/140/143
f 117/150/144 131/163/144 116/139/144
f 144/164/145 128/156/145 129/161/145
f 152/165/146 136/159/146 137/160/146
f 145/166/147 129/161/147 130/167/147
f 138/168/148 152/165/148 137/160/148
f 146/169/149 130/167/149 131/163/149
f 154/170/150 138/168/150 139/148/150
f 132/171/151 146/169/151 131/163/151
f 140/172/152 154/170/152 139/148/152
f 148/173/153 132/171/153 133/149/153
f 141/151/154 155/174/154 140/172/154
f 134/155/155 148/173/155 133/149/155
f 157/175/156 141/151/156 142/153/156
f 135/176/157 149/177/157 134/155/157
f 128/156/158 143/178/158 82/179/158
f 308/180/159 157/175/159 142/153/159
f 151/181/160 135/176/160 136/159/160
f 163/182/161 147/183/161 148/173/161
f 156/184/162 170/185/162 155/174/162
f 149/177/163 163/182/163 148/173/163
f 157/175/164 171/186/164 156/184/164
f 150/187/165 164/188/165 149/177/165
f 143/178/166 158/189/166 82/190/166
f 308/191/167 172/192/167 157/175/167
f 166/193/168 150/187/168 151/181/168
f 159/194/169 143/178/169 144/164/169
f 167/195/170 151/181/170 152/165/170
f 160/196/171 144/164/171 145/166/171
f 153/197/172 167/195/172 152/165/172
f 161/198/173 145/166/173 146/169/173
f 169/199/174 153/197/174 154/170/174
f 147/183/175 161/198/175 146/169/175
f 155/174/176 169/199/176 154/170/176
f 182/200/177 166/193/177 167/195/177
f 175/201/178 159/194/178 160/196/178
f 168/202/179 182/200/179 167/195/179
f 176/203/180 160/196/180 161/198/180
f 184/204/181 168/202/181 169/199/181
f 162/205/182 176/203/182 161/198/182
f 170/185/183 184/204/183 169/199/183
f 178/206/184 162/205/184 163/182/184
f 171/186/185 185/207/185 170/185/185
f 164/188/186 178/206/186 163/182/186
f 172/192/187 186/208/187 171/186/187
f 165/209/188 179/210/188 164/188/188
f 158/189/189 173/211/189 82/212/189
f 308/213/190 187/214/190 172/192/190
f 181/215/191 165/209/191 166/193/191
f 174/216/192 158/189/192 159/194/192
f 201/217/193 185/207/193 186/208/193
f 179/210/194 193/218/194 178/206/194
f 202/219/195 186/208/195 187/214/195
f 180/220/196 194/221/196 179/210/196
f 173/211/197 188/222/197 82/223/197
f 308/224/198 202/219/198 187/214/198
f 196/225/199 180/220/199 181/215/199
f 174/216/200 188/222/200 173/211/200
f 197/226/201 181/215/201 182/200/201
f 175/201/202 189/227/202 174/216/202
f 183/228/203 197/226/203 182/200/203
f 191/229/204 175/201/204 176/203/204
f 199/230/205 183/228/205 184/204/205
f 177/231/206 191/229/206 176/203/206
f 185/207/207 199/230/207 184/204/207
f 193/218/208 177/231/208 178/206/208
f 205/232/209 189/227/209 190/233/209
f 198/234/210 212/235/210 197/226/210
f 206/236/211 190/233/211 191/229/211
f 214/237/212 198/234/212 199/230/212
f 192/238/213 206/236/213 191/229/213
f 200/239/214 214/237/214 199/230/214
f 208/240/215 192/238/215 193/218/215
f 201/217/216 215/241/216 200/239/216
f 194/221/217 208/240/217 193/218/217
f 202/219/218 216/242/218 201/217/218
f 195/243/219 209/244/219 194/221/219
f 188/222/220 203/245/220 82/246/220
f 308/247/221 217/248/221 202/219/221
f 211/249/222 195/243/222 196/225/222
f 204/250/223 188/222/223 189/227/223
f 212/235/224 196/225/224 197/226/224
f 209/244/225 223/251/225 208/240/225
f 217/248/226 231/252/226 216/242/226
f 210/253/227 224/254/227 209/244/227
f 203/245/228 218/255/228 82/256/228
f 308/257/229 232/258/229 217/248/229
f 226/259/230 210/253/230 211/249/230
f 219/260/231 203/245/231 204/250/231
f 227/261/232 211/249/232 212/235/232
f 220/262/233 204/250/233 205/232/233
f 213/263/234 227/261/234 212/235/234
f 221/264/235 205/232/235 206/236/235
f 229/265/236 213/263/236 214/237/236
f 207/266/237 221/264/237 206/236/237
f 215/241/238 229/265/238 214/237/238
f 223/251/239 207/266/239 208/240/239
f 216/242/240 230/267/240 215/241/240
f 228/268/241 242/269/241 227/261/241
f 236/270/242 220/262/242 221/264/242
f 244/271/243 228/268/243 229/265/243
f 222/272/244 236/270/244 221/264/244
f 230/267/245 244/271/245 229/265/245
f 238/273/246 222/272/246 223/251/246
f 231/252/247 245/274/247 230/267/247
f 224/254/248 238/273/248 223/251/248
f 247/275/249 231/252/249 232/258/249
f 225/276/250 239/277/250 224/254/250
f 218/255/251 233/278/251 82/279/251
f 308/280/252 247/275/252 232/258/252
f 241/281/253 225/276/253 226/259/253
f 219/260/254 233/278/254 218/255/254
f 242/269/255 226/259/255 227/261/255
f 235/282/256 219/260/256 220/262/256
f 262/283/257 246/284/257 247/275/257
f 240/285/258 254/286/258 239/277/258
f 233/278/259 248/287/259 82/288/259
f 308/289/260 262/283/260 247/275/260
f 256/290/261 240/285/261 241/281/261
f 234/291/262 248/287/262 233/278/262
f 257/292/263 241/281/263 242/269/263
f 235/282/264 249/293/264 234/291/264
f 243/294/265 257/292/265 242/269/265
f 251/295/266 235/282/266 236/270/266
f 259/296/267 243/294/267 244/271/267
f 237/297/268 251/295/268 236/270/268
f 245/274/269 259/296/269 244/271/269
f 253/298/270 237/297/270 238/273/270
f 261/299/271 245/274/271 246/284/271
f 239/277/272 253/298/272 238/273/272
f 274/300/273 258/301/273 259/296/273
f 252/302/274 266/303/274 251/295/274
f 260/304/275 274/300/275 259/296/275
f 268/305/276 252/302/276 253/298/276
f 261/299/277 275/306/277 260/304/277
f 254/286/278 268/305/278 253/298/278
f 277/307/279 261/299/279 262/283/279
f 255/308/280 269/309/280 254/286/280
f 248/287/281 263/310/281 82/311/281
f 308/312/282 277/307/282 262/283/282
f 271/313/283 255/308/283 256/290/283
f 249/293/284 263/310/284 248/287/284
f 272/314/285 256/290/285 257/292/285
f 265/315/286 249/293/286 250/316/286
f 258/301/287 272/314/287 257/292/287
f 266/303/288 250/316/288 251/295/288
f 263/310/289 278/317/289 82/318/289
f 308/319/290 292/320/290 277/307/290
f 286/321/291 270/322/291 271/313/291
f 279/323/292 263/310/292 264/324/292
f 287/325/293 271/313/293 272/314/293
f 280/326/294 264/324/294 265/315/294
f 273/327/295 287/325/295 272/314/295
f 281/328/296 265/315/296 266/303/296
f 289/329/297 273/327/297 274/300/297
f 267/330/298 281/328/298 266/303/298
f 275/306/299 289/329/299 274/300/299
f 283/331/300 267/330/300 268/305/300
f 291/332/301 275/306/301 276/333/301
f 269/309/302 283/331/302 268/305/302
f 292/320/303 276/333/303 277/307/303
f 270/322/304 284/334/304 269/309/304
f 282/335/305 296/336/305 281/328/305
f 290/337/306 304/338/306 289/329/306
f 298/339/307 282/335/307 283/331/307
f 306/340/308 290/337/308 291/332/308
f 284/334/309 298/339/309 283/331/309
f 292/320/310 306/340/310 291/332/310
f 285/341/311 299/342/311 284/334/311
f 278/317/312 293/343/312 82/344/312
f 308/345/313 307/346/313 292/320/313
f 301/347/314 285/341/314 286/321/314
f 294/348/315 278/317/315 279/323/315
f 302/349/316 286/321/316 287/325/316
f 280/326/317 294/348/317 279/323/317
f 288/350/318 302/349/318 287/325/318
f 296/336/319 280/326/319 281/328/319
f 304/338/320 288/350/320 289/329/320
f 317/351/321 300/352/321 301/347/321
f 294/348/322 309/353/322 293/343/322
f 318/354/323 301/347/323 302/349/323
f 295/355/324 310/356/324 294/348/324
f 303/357/325 318/354/325 302/349/325
f 312/358/326 295/355/326 296/336/326
f 320/359/327 303/357/327 304/338/327
f 297/360/328 312/358/328 296/336/328
f 305/361/329 320/359/329 304/338/329
f 314/362/330 297/360/330 298/339/330
f 322/363/331 305/361/331 306/340/331
f 299/342/332 314/362/332 298/339/332
f 323/364/333 306/340/333 307/346/333
f 300/352/334 315/365/334 299/342/334
f 293/343/335 309/353/335 82/366/335
f 308/367/336 323/364/336 307/346/336
f 321/368/337 335/369/337 320/359/337
f 329/370/338 313/371/338 314/362/338
f 337/372/339 321/368/339 322/363/339
f 315/365/340 329/370/340 314/362/340
f 323/364/341 337/372/341 322/363/341
f 316/373/342 330/374/342 315/365/342
f 309/353/343 324/375/343 82/376/343
f 308/377/344 338/378/344 323/364/344
f 332/379/345 316/373/345 317/351/345
f 325/380/346 309/353/346 310/356/346
f 333/381/347 317/351/347 318/354/347
f 326/382/348 310/356/348 311/383/348
f 319/384/349 333/381/349 318/354/349
f 327/385/350 311/383/350 312/358/350
f 335/369/351 319/384/351 320/359/351
f 313/371/352 327/385/352 312/358/352
f 340/386/353 324/375/353 325/380/353
f 348/387/354 332/379/354 333/381/354
f 326/382/355 340/386/355 325/380/355
f 334/388/356 348/387/356 333/381/356
f 342/389/357 326/382/357 327/385/357
f 350/390/358 334/388/358 335/369/358
f 328/391/359 342/389/359 327/385/359
f 336/392/360 350/390/360 335/369/360
f 344/393/361 328/391/361 329/370/361
f 352/394/362 336/392/362 337/372/362
f 330/374/363 344/393/363 329/370/363
f 338/378/364 352/394/364 337/372/364
f 331/395/365 345/396/365 330/374/365
f 324/375/366 339/397/366 82/398/366
f 308/399/367 353/400/367 338/378/367
f 347/401/368 331/395/368 332/379/368
f 359/402/369 343/403/369 344/393/369
f 367/404/370 351/405/370 352/394/370
f 345/396/371 359/402/371 344/393/371
f 353/400/372 367/404/372 352/394/372
f 346/406/373 360/407/373 345/396/373
f 339/397/374 354/408/374 82/409/374
f 308/410/375 368/411/375 353/400/375
f 362/412/376 346/406/376 347/401/376
f 355/413/377 339/397/377 340/386/377
f 363/414/378 347/401/378 348/387/378
f 341/415/379 355/413/379 340/386/379
f 349/416/380 363/414/380 348/387/380
f 357/417/381 341/415/381 342/389/381
f 365/418/382 349/416/382 350/390/382
f 343/403/383 357/417/383 342/389/383
f 351/405/384 365/418/384 350/390/384
f 378/419/385 362/420/385 363/421/385
f 356/422/386 370/423/386 355/424/386
f 364/425/387 378/419/387 363/421/387
f 372/426/388 356/422/388 357/427/388
f 380/428/389 364/425/389 365/429/389
f 358/430/390 372/426/390 357/427/390
f 366/431/391 380/428/391 365/429/391
f 374/432/392 358/430/392 359/433/392
f 382/434/393 366/431/393 367/435/393
f 360/436/394 374/432/394 359/433/394
f 383/437/395 367/435/395 368/438/395
f 361/439/396 375/440/396 360/436/396
f 354/441/397 369/442/397 82/443/397
f 308/444/398 383/437/398 368/438/398
f 377/445/399 361/439/399 362/420/399
f 355/424/400 369/442/400 354/441/400
f 397/446/401 381/447/401 382/434/401
f 375/440/402 389/448/402 374/432/402
f 398/449/403 382/434/403 383/437/403
f 376/450/404 390/451/404 375/440/404
f 369/442/405 384/452/405 82/453/405
f 308/454/406 398/449/406 383/437/406
f 392/455/407 376/450/407 377/445/407
f 370/423/408 384/452/408 369/442/408
f 393/456/409 377/445/409 378/419/409
f 371/457/410 385/458/410 370/423/410
f 379/459/411 393/456/411 378/419/411
f 387/460/412 371/457/412 372/426/412
f 395/461/413 379/459/413 380/428/413
f 373/462/414 387/460/414 372/426/414
f 381/447/415 395/461/415 380/428/415
f 389/448/416 373/462/416 374/432/416
f 394/463/417 408/464/417 393/456/417
f 402/465/418 386/466/418 387/460/418
f 410/467/419 394/463/419 395/461/419
f 388/468/420 402/465/420 387/460/420
f 396/469/421 410/467/421 395/461/421
f 404/470/422 388/468/422 389/448/422
f 412/471/423 396/469/423 397/446/423
f 390/451/424 404/470/424 389/448/424
f 398/449/425 412/471/425 397/446/425
f 391/472/426 405/473/426 390/451/426
f 384/452/427 399/474/427 82/475/427
f 308/476/428 413/477/428 398/449/428
f 407/478/429 391/472/429 392/455/429
f 400/479/430 384/452/430 385/458/430
f 408/464/431 392/455/431 393/456/431
f 386/466/432 400/479/432 385/458/432
f 428/480/433 412/471/433 413/477/433
f 406/481/434 420/482/434 405/473/434
f 399/474/435 414/483/435 82/484/435
f 308/485/436 428/480/436 413/477/436
f 422/486/437 406/481/437 407/478/437
f 415/487/438 399/474/438 400/479/438
f 423/488/439 407/478/439 408/464/439
f 401/489/440 415/487/440 400/479/440
f 409/490/441 423/488/441 408/464/441
f 417/491/442 401/489/442 402/465/442
f 425/492/443 409/490/443 410/467/443
f 403/493/444 417/491/444 402/465/444
f 411/494/445 425/492/445 410/467/445
f 419/495/446 403/493/446 404/470/446
f 427/496/447 411/494/447 412/471/447
f 405/473/448 419/495/448 404/470/448
f 432/497/449 416/498/449 417/491/449
f 440/499/450 424/500/450 425/492/450
f 418/501/451 432/497/451 417/491/451
f 426/502/452 440/499/452 425/492/452
f 434/503/453 418/501/453 419/495/453
f 442/504/454 426/502/454 427/496/454
f 420/482/455 434/503/455 419/495/455
f 428/480/456 442/504/456 427/496/456
f 421/505/457 435/506/457 420/482/457
f 414/483/458 429/507/458 82/508/458
f 308/509/459 443/510/459 428/480/459
f 437/511/460 421/505/460 422/486/460
f 430/512/461 414/483/461 415/487/461
f 438/513/462 422/486/462 423/488/462
f 416/498/463 430/512/463 415/487/463
f 424/500/464 438/513/464 423/488/464
f 436/514/465 450/515/465 435/506/465
f 429/507/466 444/516/466 82/517/466
f 308/518/467 458/519/467 443/510/467
f 452/520/468 436/514/468 437/511/468
f 430/512/469 444/516/469 429/507/469
f 453/521/470 437/511/470 438/513/470
f 431/522/471 445/523/471 430/512/471
f 439/524/472 453/521/472 438/513/472
f 447/525/473 431/522/473 432/497/473
f 455/526/474 439/524/474 440/499/474
f 433/527/475 447/525/475 432/497/475
f 441/528/476 455/526/476 440/499/476
f 449/529/477 433/527/477 434/503/477
f 457/530/478 441/528/478 442/504/478
f 435/506/479 449/529/479 434/503/479
f 458/519/480 442/504/480 443/510/480
f 470/531/481 454/532/481 455/526/481
f 448/533/482 462/534/482 447/525/482
f 456/535/483 470/531/483 455/526/483
f 464/536/484 448/533/484 449/529/484
f 472/537/485 456/535/485 457/530/485
f 450/515/486 464/536/486 449/529/486
f 458/519/487 472/537/487 457/530/487
f 451/538/488 465/539/488 450/515/488
f 444/516/489 459/540/489 82/541/489
f 308/542/490 473/543/490 458/519/490
f 467/544/491 451/538/491 452/520/491
f 460/545/492 444/516/492 445/523/492
f 468/546/493 452/520/493 453/521/493
f 446/547/494 460/545/494 445/523/494
f 454/532/495 468/546/495 453/521/495
f 462/534/496 446/547/496 447/525/496
f 459/540/497 474/4/497 82/548/497
f 308/549/498 482/9/498 473/543/498
f 5/11/499 466/550/499 467/544/499
f 475/12/500 459/540/500 460/545/500
f 478/14/501 467/544/501 468/546/501
f 461/551/502 475/12/502 460/545/502
f 6/18/503 468/546/503 469/552/503
f 462/534/504 1/15/504 461/551/504
f 479/21/505 469/552/505 470/531/505
f 463/553/506 476/19/506 462/534/506
f 471/554/507 479/21/507 470/531/507
f 464/536/508 2/23/508 463/553/508
f 481/28/509 471/554/509 472/537/509
f 465/539/510 477/26/510 464/536/510
f 482/9/511 472/537/511 473/543/511
f 466/550/512 3/2/512 465/539/512
f 14/1/513 13/30/513 3/2/513
f 15/10/514 14/1/514 4/3/514
f 475/12/5 8/16/5 7/5/5
f 16/13/6 15/10/6 5/11/6
f 1/15/7 9/20/7 8/16/7
f 17/17/8 16/13/8 478/14/8
f 476/19/9 10/42/9 9/20/9
f 479/21/10 18/43/10 17/17/10
f 11/22/11 10/42/11 476/19/11
f 19/24/12 18/43/12 479/21/12
f 477/26/13 12/29/13 11/22/13
f 20/27/14 19/24/14 480/25/14
f 3/2/15 13/30/15 12/29/15
f 21/8/16 20/27/16 481/28/16
f 13/30/17 28/56/17 27/31/17
f 36/32/18 35/54/18 20/27/18
f 29/33/19 28/56/19 13/30/19
f 30/37/22 29/33/22 14/1/22
f 23/38/23 22/34/23 7/5/23
f 31/39/24 30/37/24 15/10/24
f 24/40/25 23/38/25 8/16/25
f 17/17/515 32/44/515 31/39/515
f 25/41/27 24/40/27 9/20/27
f 18/43/28 33/46/28 32/44/28
f 26/45/29 25/41/29 10/42/29
f 19/24/30 34/47/30 33/46/30
f 27/31/516 26/45/516 11/22/516
f 20/27/32 35/54/32 34/47/32
f 32/44/33 47/50/33 46/48/33
f 40/49/34 39/65/34 24/40/34
f 33/46/35 48/52/35 47/50/35
f 41/51/36 40/49/36 25/41/36
f 34/47/37 49/55/37 48/52/37
f 42/53/38 41/51/38 26/45/38
f 35/54/517 50/57/517 49/55/517
f 28/56/40 43/58/40 42/53/40
f 36/32/41 51/62/41 50/57/41
f 29/33/42 44/67/42 43/58/42
f 45/63/45 44/67/45 29/33/45
f 38/64/46 37/59/46 22/34/46
f 46/48/47 45/63/47 30/37/47
f 39/65/518 38/64/518 23/38/518
f 51/62/519 66/72/519 65/66/519
f 44/67/520 59/88/520 58/68/520
f 60/73/521 59/88/521 44/67/521
f 53/74/522 52/69/522 37/59/522
f 61/75/55 60/73/55 45/63/55
f 54/76/56 53/74/56 38/64/56
f 47/50/57 62/83/57 61/75/57
f 55/77/58 54/76/58 39/65/58
f 63/78/59 62/83/59 47/50/59
f 41/51/60 56/84/60 55/77/60
f 49/55/61 64/80/61 63/78/61
f 57/79/62 56/84/62 41/51/62
f 50/57/63 65/66/63 64/80/63
f 43/58/64 58/68/64 57/79/64
f 70/81/65 69/106/65 54/76/65
f 78/82/66 77/107/66 62/83/66
f 56/84/67 71/110/67 70/81/67
f 64/80/68 79/111/68 78/82/68
f 72/85/69 71/110/69 56/84/69
f 80/86/70 79/111/70 64/80/70
f 58/68/71 73/89/71 72/85/71
f 81/87/72 80/86/72 65/66/72
f 59/88/73 74/96/73 73/89/73
f 75/93/76 74/96/76 59/88/76
f 53/74/77 68/95/77 67/90/77
f 76/94/78 75/93/78 60/73/78
f 54/76/79 69/106/79 68/95/79
f 62/83/80 77/107/80 76/94/80
f 74/96/523 90/122/523 89/97/523
f 91/102/524 90/122/524 74/96/524
f 84/103/85 83/98/85 67/90/85
f 92/104/86 91/102/86 75/93/86
f 85/105/525 84/103/525 68/95/525
f 77/107/88 93/116/88 92/104/88
f 86/108/89 85/105/89 69/106/89
f 94/109/90 93/116/90 77/107/90
f 71/110/91 87/117/91 86/108/91
f 79/111/92 95/113/92 94/109/92
f 88/112/93 87/117/93 71/110/93
f 80/86/526 96/114/526 95/113/526
f 73/89/95 89/97/95 88/112/95
f 81/87/96 97/101/96 96/114/96
f 109/115/97 108/138/97 93/116/97
f 87/117/98 102/141/98 101/118/98
f 95/113/99 110/142/99 109/115/99
f 103/119/100 102/141/100 87/117/100
f 111/120/101 110/142/101 95/113/101
f 89/97/102 104/123/102 103/119/102
f 112/121/103 111/120/103 96/114/103
f 90/122/104 105/133/104 104/123/104
f 106/127/107 105/133/107 90/122/107
f 99/128/108 98/124/108 83/98/108
f 107/129/109 106/127/109 91/102/109
f 85/105/110 100/137/110 99/128/110
f 93/116/111 108/138/111 107/129/111
f 101/118/112 100/137/112 85/105/112
f 121/132/527 120/154/527 105/133/527
f 114/134/115 113/146/115 98/124/115
f 122/135/116 121/132/116 106/127/116
f 115/136/117 114/134/117 99/128/117
f 108/138/118 123/162/118 122/135/118
f 116/139/119 115/136/119 100/137/119
f 124/140/120 123/162/120 108/138/120
f 102/141/121 117/150/121 116/139/121
f 110/142/122 125/144/122 124/140/122
f 118/143/123 117/150/123 102/141/123
f 111/120/124 126/152/124 125/144/124
f 104/123/125 119/145/125 118/143/125
f 127/131/126 126/152/126 111/120/126
f 105/133/528 120/154/528 119/145/528
f 125/144/129 140/172/129 139/148/129
f 133/149/130 132/171/130 117/150/130
f 141/151/131 140/172/131 125/144/131
f 119/145/132 134/155/132 133/149/132
f 142/153/133 141/151/133 126/152/133
f 120/154/529 135/176/529 134/155/529
f 136/159/530 135/176/530 120/154/530
f 114/134/138 129/161/138 128/156/138
f 137/160/139 136/159/139 121/132/139
f 115/136/140 130/167/140 129/161/140
f 123/162/141 138/168/141 137/160/141
f 131/163/142 130/167/142 115/136/142
f 139/148/143 138/168/143 123/162/143
f 117/150/144 132/171/144 131/163/144
f 144/164/145 143/178/145 128/156/145
f 152/165/146 151/181/146 136/159/146
f 145/166/147 144/164/147 129/161/147
f 138/168/531 153/197/531 152/165/531
f 146/169/149 145/166/149 130/167/149
f 154/170/150 153/197/150 138/168/150
f 132/171/151 147/183/151 146/169/151
f 140/172/152 155/174/152 154/170/152
f 148/173/532 147/183/532 132/171/532
f 141/151/154 156/184/154 155/174/154
f 134/155/155 149/177/155 148/173/155
f 157/175/156 156/184/156 141/151/156
f 135/176/157 150/187/157 149/177/157
f 151/181/160 150/187/160 135/176/160
f 163/182/161 162/205/161 147/183/161
f 156/184/533 171/186/533 170/185/533
f 149/177/163 164/188/163 163/182/163
f 157/175/164 172/192/164 171/186/164
f 150/187/165 165/209/165 164/188/165
f 166/193/168 165/209/168 150/187/168
f 159/194/169 158/189/169 143/178/169
f 167/195/170 166/193/170 151/181/170
f 160/196/534 159/194/534 144/164/534
f 153/197/172 168/202/172 167/195/172
f 161/198/173 160/196/173 145/166/173
f 169/199/174 168/202/174 153/197/174
f 147/183/175 162/205/175 161/198/175
f 155/174/176 170/185/176 169/199/176
f 182/200/177 181/215/177 166/193/177
f 175/201/178 174/216/178 159/194/178
f 168/202/179 183/228/179 182/200/179
f 176/203/180 175/201/180 160/196/180
f 184/204/181 183/228/181 168/202/181
f 162/205/182 177/231/182 176/203/182
f 170/185/183 185/207/183 184/204/183
f 178/206/184 177/231/184 162/205/184
f 171/186/185 186/208/185 185/207/185
f 164/188/186 179/210/186 178/206/186
f 172/192/187 187/214/187 186/208/187
f 165/209/188 180/220/188 179/210/188
f 181/215/191 180/220/191 165/209/191
f 174/216/192 173/211/192 158/189/192
f 201/217/193 200/239/193 185/207/193
f 179/210/194 194/221/194 193/218/194
f 202/219/535 201/217/535 186/208/535
f 180/220/196 195/243/196 194/221/196
f 196/225/199 195/243/199 180/220/199
f 174/216/536 189/227/536 188/222/536
f 197/226/201 196/225/201 181/215/201
f 175/201/202 190/233/202 189/227/202
f 183/228/203 198/234/203 197/226/203
f 191/229/204 190/233/204 175/201/204
f 199/230/205 198/234/205 183/228/205
f 177/231/206 192/238/206 191/229/206
f 185/207/207 200/239/207 199/230/207
f 193/218/208 192/238/208 177/231/208
f 205/232/209 204/250/209 189/227/209
f 198/234/210 213/263/210 212/235/210
f 206/236/211 205/232/211 190/233/211
f 214/237/212 213/263/212 198/234/212
f 192/238/213 207/266/213 206/236/213
f 200/239/214 215/241/214 214/237/214
f 208/240/215 207/266/215 192/238/215
f 201/217/216 216/242/216 215/241/216
f 194/221/217 209/244/217 208/240/217
f 202/219/218 217/248/218 216/242/218
f 195/243/219 210/253/219 209/244/219
f 211/249/222 210/253/222 195/243/222
f 204/250/223 203/245/223 188/222/223
f 212/235/224 211/249/224 196/225/224
f 209/244/225 224/254/225 223/251/225
f 217/248/226 232/258/226 231/252/226
f 210/253/537 225/276/537 224/254/537
f 226/259/538 225/276/538 210/253/538
f 219/260/231 218/255/231 203/245/231
f 227/261/232 226/259/232 211/249/232
f 220/262/233 219/260/233 204/250/233
f 213/263/234 228/268/234 227/261/234
f 221/264/235 220/262/235 205/232/235
f 229/265/236 228/268/236 213/263/236
f 207/266/237 222/272/237 221/264/237
f 215/241/238 230/267/238 229/265/238
f 223/251/239 222/272/239 207/266/239
f 216/242/240 231/252/240 230/267/240
f 228/268/241 243/294/241 242/269/241
f 236/270/242 235/282/242 220/262/242
f 244/271/243 243/294/243 228/268/243
f 222/272/244 237/297/244 236/270/244
f 230/267/245 245/274/245 244/271/245
f 238/273/246 237/297/246 222/272/246
f 231/252/247 246/284/247 245/274/247
f 224/254/248 239/277/248 238/273/248
f 247/275/539 246/284/539 231/252/539
f 225/276/540 240/285/540 239/277/540
f 241/281/541 240/285/541 225/276/541
f 219/260/254 234/291/254 233/278/254
f 242/269/255 241/281/255 226/259/255
f 235/282/256 234/291/256 219/260/256
f 262/283/257 261/299/257 246/284/257
f 240/285/542 255/308/542 254/286/542
f 256/290/543 255/308/543 240/285/543
f 234/291/262 249/293/262 248/287/262
f 257/292/263 256/290/263 241/281/263
f 235/282/264 250/316/264 249/293/264
f 243/294/265 258/301/265 257/292/265
f 251/295/266 250/316/266 235/282/266
f 259/296/267 258/301/267 243/294/267
f 237/297/268 252/302/268 251/295/268
f 245/274/269 260/304/269 259/296/269
f 253/298/270 252/302/270 237/297/270
f 261/299/271 260/304/271 245/274/271
f 239/277/272 254/286/272 253/298/272
f 274/300/273 273/327/273 258/301/273
f 252/302/274 267/330/274 266/303/274
f 260/304/275 275/306/275 274/300/275
f 268/305/276 267/330/276 252/302/276
f 261/299/277 276/333/277 275/306/277
f 254/286/278 269/309/278 268/305/278
f 277/307/279 276/333/279 261/299/279
f 255/308/544 270/322/544 269/309/544
f 271/313/545 270/322/545 255/308/545
f 249/293/284 264/324/284 263/310/284
f 272/314/285 271/313/285 256/290/285
f 265/315/286 264/324/286 249/293/286
f 258/301/287 273/327/287 272/314/287
f 266/303/288 265/315/288 250/316/288
f 286/321/291 285/341/291 270/322/291
f 279/323/292 278/317/292 263/310/292
f 287/325/293 286/321/293 271/313/293
f 280/326/546 279/323/546 264/324/546
f 273/327/295 288/350/295 287/325/295
f 281/328/296 280/326/296 265/315/296
f 289/329/297 288/350/297 273/327/297
f 267/330/298 282/335/298 281/328/298
f 275/306/299 290/337/299 289/329/299
f 283/331/300 282/335/300 267/330/300
f 291/332/547 290/337/547 275/306/547
f 269/309/302 284/334/302 283/331/302
f 292/320/303 291/332/303 276/333/303
f 270/322/304 285/341/304 284/334/304
f 282/335/305 297/360/305 296/336/305
f 290/337/306 305/361/306 304/338/306
f 298/339/307 297/360/307 282/335/307
f 306/340/308 305/361/308 290/337/308
f 284/334/309 299/342/309 298/339/309
f 292/320/548 307/346/548 306/340/548
f 285/341/311 300/352/311 299/342/311
f 301/347/314 300/352/314 285/341/314
f 294/348/549 293/343/549 278/317/549
f 302/349/316 301/347/316 286/321/316
f 280/326/317 295/355/317 294/348/317
f 288/350/318 303/357/318 302/349/318
f 296/336/319 295/355/319 280/326/319
f 304/338/320 303/357/320 288/350/320
f 317/351/321 316/373/321 300/352/321
f 294/348/322 310/356/322 309/353/322
f 318/354/323 317/351/323 301/347/323
f 295/355/324 311/383/324 310/356/324
f 303/357/325 319/384/325 318/354/325
f 312/358/326 311/383/326 295/355/326
f 320/359/327 319/384/327 303/357/327
f 297/360/328 313/371/328 312/358/328
f 305/361/329 321/368/329 320/359/329
f 314/362/330 313/371/330 297/360/330
f 322/363/331 321/368/331 305/361/331
f 299/342/332 315/365/332 314/362/332
f 323/364/333 322/363/333 306/340/333
f 300/352/334 316/373/334 315/365/334
f 321/368/337 336/392/337 335/369/337
f 329/370/338 328/391/338 313/371/338
f 337/372/339 336/392/339 321/368/339
f 315/365/340 330/374/340 329/370/340
f 323/364/341 338/378/341 337/372/341
f 316/373/550 331/395/550 330/374/550
f 332/379/551 331/395/551 316/373/551
f 325/380/346 324/375/346 309/353/346
f 333/381/347 332/379/347 317/351/347
f 326/382/552 325/380/552 310/356/552
f 319/384/349 334/388/349 333/381/349
f 327/385/350 326/382/350 311/383/350
f 335/369/351 334/388/351 319/384/351
f 313/371/352 328/391/352 327/385/352
f 340/386/353 339/397/353 324/375/353
f 348/387/354 347/401/354 332/379/354
f 326/382/355 341/415/355 340/386/355
f 334/388/356 349/416/356 348/387/356
f 342/389/357 341/415/357 326/382/357
f 350/390/358 349/416/358 334/388/358
f 328/391/359 343/403/359 342/389/359
f 336/392/360 351/405/360 350/390/360
f 344/393/361 343/403/361 328/391/361
f 352/394/362 351/405/362 336/392/362
f 330/374/363 345/396/363 344/393/363
f 338/378/364 353/400/364 352/394/364
f 331/395/365 346/406/365 345/396/365
f 347/401/368 346/406/368 331/395/368
f 359/402/369 358/555/369 343/403/369
f 367/404/370 366/556/370 351/405/370
f 345/396/371 360/407/371 359/402/371
f 353/400/372 368/411/372 367/404/372
f 346/406/373 361/557/373 360/407/373
f 362/412/376 361/557/376 346/406/376
f 355/413/377 354/408/377 339/397/377
f 363/414/378 362/412/378 347/401/378
f 341/415/379 356/558/379 355/413/379
f 349/416/380 364/559/380 363/414/380
f 357/417/381 356/558/381 341/415/381
f 365/418/382 364/559/382 349/416/382
f 343/403/383 358/555/383 357/417/383
f 351/405/384 366/556/384 365/418/384
f 378/419/385 377/445/385 362/420/385
f 356/422/386 371/457/386 370/423/386
f 364/425/387 379/459/387 378/419/387
f 372/426/388 371/457/388 356/422/388
f 380/428/389 379/459/389 364/425/389
f 358/430/390 373/462/390 372/426/390
f 366/431/391 381/447/391 380/428/391
f 374/432/392 373/462/392 358/430/392
f 382/434/393 381/447/393 366/431/393
f 360/436/394 375/440/394 374/432/394
f 383/437/395 382/434/395 367/435/395
f 361/439/396 376/450/396 375/440/396
f 377/445/399 376/450/399 361/439/399
f 355/424/400 370/423/400 369/442/400
f 397/446/401 396/469/401 381/447/401
f 375/440/402 390/451/402 389/448/402
f 398/449/403 397/446/403 382/434/403
f 376/450/404 391/472/404 390/451/404
f 392/455/407 391/472/407 376/450/407
f 370/423/408 385/458/408 384/452/408
f 393/456/409 392/455/409 377/445/409
f 371/457/410 386/466/410 385/458/410
f 379/459/411 394/463/411 393/456/411
f 387/460/412 386/466/412 371/457/412
f 395/461/413 394/463/413 379/459/413
f 373/462/414 388/468/414 387/460/414
f 381/447/415 396/469/415 395/461/415
f 389/448/416 388/468/416 373/462/416
f 394/463/417 409/490/417 408/464/417
f 402/465/418 401/489/418 386/466/418
f 410/467/419 409/490/419 394/463/419
f 388/468/420 403/493/420 402/465/420
f 396/469/421 411/494/421 410/467/421
f 404/470/422 403/493/422 388/468/422
f 412/471/553 411/494/553 396/469/553
f 390/451/424 405/473/424 404/470/424
f 398/449/425 413/477/425 412/471/425
f 391/472/426 406/481/426 405/473/426
f 407/478/429 406/481/429 391/472/429
f 400/479/430 399/474/430 384/452/430
f 408/464/431 407/478/431 392/455/431
f 386/466/554 401/489/554 400/479/554
f 428/480/433 427/496/433 412/471/433
f 406/481/434 421/505/434 420/482/434
f 422/486/437 421/505/437 406/481/437
f 415/487/438 414/483/438 399/474/438
f 423/488/439 422/486/439 407/478/439
f 401/489/440 416/498/440 415/487/440
f 409/490/441 424/500/441 423/488/441
f 417/491/442 416/498/442 401/489/442
f 425/492/443 424/500/443 409/490/443
f 403/493/444 418/501/444 417/491/444
f 411/494/445 426/502/445 425/492/445
f 419/495/446 418/501/446 403/493/446
f 427/496/447 426/502/447 411/494/447
f 405/473/448 420/482/448 419/495/448
f 432/497/449 431/522/449 416/498/449
f 440/499/450 439/524/450 424/500/450
f 418/501/451 433/527/451 432/497/451
f 426/502/452 441/528/452 440/499/452
f 434/503/453 433/527/453 418/501/453
f 442/504/454 441/528/454 426/502/454
f 420/482/455 435/506/455 434/503/455
f 428/480/456 443/510/456 442/504/456
f 421/505/457 436/514/457 435/506/457
f 437/511/460 436/514/460 421/505/460
f 430/512/461 429/507/461 414/483/461
f 438/513/462 437/511/462 422/486/462
f 416/498/463 431/522/463 430/512/463
f 424/500/464 439/524/464 438/513/464
f 436/514/555 451/538/555 450/515/555
f 452/520/556 451/538/556 436/514/556
f 430/512/469 445/523/469 444/516/469
f 453/521/470 452/520/470 437/511/470
f 431/522/471 446/547/471 445/523/471
f 439/524/472 454/532/472 453/521/472
f 447/525/473 446/547/473 431/522/473
f 455/526/474 454/532/474 439/524/474
f 433/527/475 448/533/475 447/525/475
f 441/528/476 456/535/476 455/526/476
f 449/529/477 448/533/477 433/527/477
f 457/530/478 456/535/478 441/528/478
f 435/506/479 450/515/479 449/529/479
f 458/519/557 457/530/557 442/504/557
f 470/531/481 469/552/481 454/532/481
f 448/533/482 463/553/482 462/534/482
f 456/535/483 471/554/483 470/531/483
f 464/536/484 463/553/484 448/533/484
f 472/537/485 471/554/485 456/535/485
f 450/515/486 465/539/486 464/536/486
f 458/519/487 473/543/487 472/537/487
f 451/538/488 466/550/488 465/539/488
f 467/544/491 466/550/491 451/538/491
f 460/545/492 459/540/492 444/516/492
f 468/546/493 467/544/493 452/520/493
f 446/547/494 461/551/494 460/545/494
f 454/532/495 469/552/495 468/546/495
f 462/534/496 461/551/496 446/547/496
f 5/11/558 4/3/558 466/550/558
f 475/12/500 474/4/500 459/540/500
f 478/14/501 5/11/501 467/544/501
f 461/551/502 1/15/502 475/12/502
f 6/18/503 478/14/503 468/546/503
f 462/534/504 476/19/504 1/15/504
f 479/21/505 6/18/505 469/552/505
f 463/553/506 2/23/506 476/19/506
f 471/554/507 480/25/507 479/21/507
f 464/536/508 477/26/508 2/23/508
f 481/28/509 480/25/509 471/554/509
f 465/539/510 3/2/510 477/26/510
f 482/9/559 481/28/559 472/537/559
f 466/550/560 4/3/560 3/2/560
