# Blender v3.5.0 OBJ File: ''
# www.blender.org
mtllib arrow.mtl
o Cube
v 0.251732 0.217611 -0.679314
v 0.251732 -0.217611 -0.679314
v 0.000761 0.217611 0.819066
v 0.000761 -0.217611 0.819066
v -0.251732 0.217611 -0.679314
v -0.251732 -0.217611 -0.679314
v -0.000761 0.217611 0.819066
v -0.000761 -0.217611 0.819066
v -0.251732 -0.217611 -0.237830
v 0.251732 0.217611 -0.237830
v -0.251732 0.217611 -0.237830
v 0.251732 -0.217611 -0.237830
v -0.251732 -0.217611 0.262170
v 0.251732 0.217611 0.262170
v -0.251732 0.217611 0.262170
v 0.251732 -0.217611 0.262170
v -0.594999 -0.217611 0.263735
v 0.594999 0.217611 0.263735
v -0.594999 0.217611 0.263735
v 0.594999 -0.217611 0.263735
vt 0.483883 0.936048
vt 0.677042 0.468024
vt 0.677042 0.741545
vt 0.676795 0.742144
vt 0.375803 0.228352
vt 0.000000 0.228352
vt 0.000000 0.227717
vt 0.375803 0.227717
vt 0.759997 0.375803
vt 0.759997 0.751606
vt 0.677042 0.751606
vt 0.677042 0.375803
vt 0.483883 0.468024
vt 0.677042 0.000000
vt 0.677042 0.273521
vt 0.676795 0.274120
vt 0.375803 0.496652
vt 0.000000 0.496652
vt 0.214213 0.496652
vt 0.214213 0.872454
vt 0.000000 0.872454
vt 0.000000 0.496652
vt 0.853948 0.000000
vt 0.853948 0.375803
vt 0.770992 0.375803
vt 0.770992 0.000000
vt 0.375803 0.265417
vt 0.457524 0.067405
vt 0.534206 0.099052
vt 0.452484 0.297064
vt 0.853948 0.375803
vt 0.853948 0.751606
vt 0.375803 0.733441
vt 0.457524 0.535429
vt 0.534206 0.567076
vt 0.452484 0.765088
vt 1.000000 0.000000
vt 1.000000 0.375803
vt 0.853948 0.375803
vt 0.853948 0.000000
vt 0.677042 0.375803
vt 0.677042 0.000000
vt 0.621051 0.134894
vt 0.539330 0.332906
vt 0.621051 0.602918
vt 0.539330 0.800930
vt 0.000000 0.000000
vt 0.375803 0.000000
vt 0.360265 0.496652
vt 0.360265 0.872454
vt 0.214213 0.872454
vt 0.214213 0.496652
vn 0.0000 1.0000 0.0000
vn 0.0000 0.0000 1.0000
vn -1.0000 0.0000 0.0000
vn 0.0000 -1.0000 0.0000
vn 0.6828 0.0000 0.7306
vn 0.0000 0.0000 -1.0000
vn 1.0000 0.0000 0.0000
vn -0.0046 0.0000 -1.0000
vn -0.6828 0.0000 0.7306
vn 0.0046 0.0000 -1.0000
usemtl Material
s off
f 18/1/1 19/2/1 7/3/1 3/4/1
f 4/5/2 3/6/2 7/7/2 8/8/2
f 9/9/3 11/10/3 5/11/3 6/12/3
f 17/13/4 20/14/4 4/15/4 8/16/4
f 20/17/5 18/18/5 3/6/5 4/5/5
f 6/19/6 5/20/6 1/21/6 2/22/6
f 2/23/7 1/24/7 10/25/7 12/26/7
f 6/27/4 2/28/4 12/29/4 9/30/4
f 13/31/3 15/32/3 11/10/3 9/9/3
f 1/33/1 5/34/1 11/35/1 10/36/1
f 17/37/8 19/38/8 15/39/8 13/40/8
f 12/26/7 10/25/7 14/41/7 16/42/7
f 9/30/4 12/29/4 16/43/4 13/44/4
f 10/36/1 11/35/1 15/45/1 14/46/1
f 8/8/9 7/7/9 19/47/9 17/48/9
f 16/49/10 14/50/10 18/51/10 20/52/10
f 13/44/4 16/43/4 20/14/4 17/13/4
f 14/46/1 15/45/1 19/2/1 18/1/1
