# Blender v3.5.0 OBJ File: ''
# www.blender.org
mtllib enemy.mtl
o 立方体.003_立方体.007
v -4.368821 1.165067 1.194255
v -3.179563 1.156085 1.192392
v -3.179563 1.499791 -0.464895
v -4.368821 1.508773 -0.463032
v -3.200170 -1.116311 -1.007451
v -4.389429 -1.107329 -1.005588
v -3.200170 -1.460017 0.649837
v -4.389429 -1.451035 0.651700
v -3.227872 3.178836 3.424757
v -3.227767 3.192245 -3.055291
v -3.227257 -3.225924 -3.041882
v -3.227363 -3.239334 3.438167
v 3.255568 -3.226434 -3.041987
v 3.255463 -3.239843 3.438061
v 3.255059 3.191736 -3.055397
v 3.254953 3.178328 3.424651
v -1.415019 -3.187648 0.214598
v -1.415000 -3.185188 -0.974186
v -1.414867 -4.860859 -0.970685
v -1.414886 -4.863319 0.218099
v 1.285069 -4.861071 -0.970729
v 1.285051 -4.863531 0.218055
v 1.284937 -3.185400 -0.974230
v 1.284918 -3.187860 0.214554
v 3.251300 1.164468 1.194131
v 4.440558 1.155486 1.192268
v 4.440558 1.499192 -0.465019
v 3.251300 1.508174 -0.463156
v 4.419950 -1.116909 -1.007575
v 3.230692 -1.107927 -1.005712
v 4.419950 -1.460615 0.649713
v 3.230692 -1.451634 0.651576
vt 0.314638 0.978631
vt 0.314638 0.887242
vt 0.405837 0.887232
vt 0.405837 0.978621
vt 0.678459 0.887240
vt 0.678459 0.978629
vt 0.588234 0.978622
vt 0.588234 0.887232
vt 0.314638 0.887242
vt 0.314638 0.978631
vt 0.223439 0.978621
vt 0.223439 0.887232
vt 0.906595 0.983618
vt 0.906595 0.892229
vt 0.996821 0.892221
vt 0.996821 0.983610
vt 0.816369 0.709442
vt 0.907755 0.709442
vt 0.907755 0.800832
vt 0.816369 0.800832
vt 0.874705 0.501183
vt 0.966091 0.501183
vt 0.966091 0.592572
vt 0.874705 0.592572
vt 0.223439 0.844449
vt 0.223439 0.498817
vt 0.445693 0.541600
vt 0.445693 0.887232
vt 0.000000 0.000000
vt 0.344910 0.000667
vt 0.344910 0.498817
vt 0.000000 0.498150
vt 0.667946 0.498817
vt 0.667946 0.844449
vt 0.445693 0.887232
vt 0.445693 0.541600
vt 0.689820 0.498150
vt 0.344910 0.498817
vt 0.344910 0.000667
vt 0.689820 0.000000
vt 0.223439 0.501849
vt 0.223439 1.000000
vt 0.000000 0.996968
vt 0.000000 0.498817
vt 0.689820 0.501183
vt 0.689820 0.003032
vt 0.913259 0.000000
vt 0.913259 0.498151
vt 0.806182 0.719943
vt 0.806182 0.783350
vt 0.748156 0.772180
vt 0.748156 0.708773
vt 0.816369 0.708773
vt 0.753094 0.708650
vt 0.753094 0.501183
vt 0.816369 0.501305
vt 0.806182 0.783350
vt 0.806182 0.846757
vt 0.748156 0.857927
vt 0.748156 0.794520
vt 0.689820 0.501305
vt 0.753094 0.501183
vt 0.753094 0.708650
vt 0.689820 0.708773
vt 0.874705 0.501975
vt 0.874705 0.709442
vt 0.816369 0.708651
vt 0.816369 0.501183
vt 0.689820 0.917032
vt 0.689820 0.709564
vt 0.748156 0.708773
vt 0.748156 0.916240
vt 0.497035 0.978631
vt 0.497035 0.887242
vt 0.588234 0.887232
vt 0.588234 0.978621
vt 0.906595 0.892229
vt 0.906595 0.983618
vt 0.816369 0.983610
vt 0.816369 0.892221
vt 0.497035 0.887242
vt 0.497035 0.978631
vt 0.405837 0.978621
vt 0.405837 0.887232
vt 0.907755 0.800839
vt 0.907755 0.709450
vt 0.997981 0.709442
vt 0.997981 0.800831
vt 0.816369 0.800832
vt 0.907755 0.800832
vt 0.907755 0.892221
vt 0.816369 0.892221
vt 0.874705 0.592572
vt 0.966091 0.592572
vt 0.966091 0.683962
vt 0.874705 0.683962
vn 0.0077 0.9791 0.2031
vn -0.0000 0.2031 -0.9792
vn -0.0077 -0.9791 -0.2031
vn 0.0000 -0.2031 0.9792
vn -1.0000 0.0076 0.0016
vn 1.0000 -0.0076 -0.0016
vn -1.0000 -0.0001 -0.0000
vn -0.0001 -1.0000 -0.0021
vn 1.0000 0.0001 0.0000
vn 0.0001 1.0000 0.0021
vn 0.0000 0.0021 1.0000
vn -0.0000 -0.0021 -1.0000
usemtl マテリアル.006
s 1
f 1/1/1 2/2/1 3/3/1 4/4/1
f 4/5/2 3/6/2 5/7/2 6/8/2
f 6/9/3 5/10/3 7/11/3 8/12/3
f 8/13/4 7/14/4 2/15/4 1/16/4
f 4/17/5 6/18/5 8/19/5 1/20/5
f 5/21/6 3/22/6 2/23/6 7/24/6
f 9/25/7 10/26/7 11/27/7 12/28/7
f 12/29/8 11/30/8 13/31/8 14/32/8
f 14/33/9 13/34/9 15/35/9 16/36/9
f 16/37/10 15/38/10 10/39/10 9/40/10
f 12/41/11 14/42/11 16/43/11 9/44/11
f 13/45/12 11/46/12 10/47/12 15/48/12
f 17/49/7 18/50/7 19/51/7 20/52/7
f 20/53/8 19/54/8 21/55/8 22/56/8
f 22/57/9 21/58/9 23/59/9 24/60/9
f 24/61/10 23/62/10 18/63/10 17/64/10
f 20/65/11 22/66/11 24/67/11 17/68/11
f 21/69/12 19/70/12 18/71/12 23/72/12
f 25/73/1 26/74/1 27/75/1 28/76/1
f 28/77/2 27/78/2 29/79/2 30/80/2
f 30/81/3 29/82/3 31/83/3 32/84/3
f 32/85/4 31/86/4 26/87/4 25/88/4
f 28/89/5 30/90/5 32/91/5 25/92/5
f 29/93/6 27/94/6 26/95/6 31/96/6
