# Blender v3.5.0 OBJ File: ''
# www.blender.org
mtllib Bikkuri.mtl
o Cube.001
v 1.254846 2.915559 -1.655538
v -1.254846 2.915559 -1.655538
v -1.254846 2.915559 1.655538
v 1.254846 2.915559 1.655538
v 1.254846 0.290169 1.655538
v -1.254846 0.290169 1.655538
v -1.254846 0.290169 -1.655538
v 1.254846 0.290169 -1.655538
v 1.655538 13.445248 -1.655539
v -1.655538 13.445248 -1.655539
v -1.655538 13.445248 1.655537
v 1.655538 13.445248 1.655537
v 1.137096 3.789537 1.655538
v -1.137096 3.789537 1.655538
v -1.137096 3.789537 -1.655538
v 1.137096 3.789537 -1.655538
vt 0.645304 0.653025
vt 0.822652 0.653025
vt 0.822652 0.830373
vt 0.645304 0.830373
vt 0.354696 0.652254
vt 0.354696 0.829602
vt 0.177348 0.829602
vt 0.177348 0.652254
vt 0.999930 0.354696
vt 0.822652 0.354696
vt 0.822652 0.177348
vt 0.999930 0.177348
vt 0.467956 0.653025
vt 0.645304 0.653025
vt 0.645304 0.830373
vt 0.467956 0.830373
vt 0.999930 0.532044
vt 0.822652 0.532044
vt 0.822652 0.354696
vt 0.999930 0.354696
vt 1.000000 0.000000
vt 1.000000 0.177348
vt 0.822652 0.177348
vt 0.822652 0.000000
vt 0.177348 0.652254
vt 0.177348 0.886232
vt 0.000000 0.886232
vt 0.000000 0.652254
vt 0.197342 0.000000
vt 0.233978 0.652254
vt 0.000000 0.652254
vt 0.036636 0.000000
vt 0.645304 0.000000
vt 0.645304 0.653025
vt 0.467956 0.653025
vt 0.467956 0.000000
vt 0.822652 0.532044
vt 0.983358 0.532044
vt 0.983358 0.709392
vt 0.822652 0.709392
vt 0.822652 0.000000
vt 0.822652 0.653025
vt 0.645304 0.653025
vt 0.645304 0.000000
vt 0.431320 0.000000
vt 0.467956 0.652254
vt 0.233978 0.652254
vt 0.270614 0.000000
vn 0.0000 1.0000 -0.0000
vn 0.0000 0.0000 1.0000
vn -1.0000 -0.0000 0.0000
vn 0.0000 -1.0000 0.0000
vn 1.0000 0.0000 0.0000
vn 0.0000 -0.0000 -1.0000
vn -0.9986 -0.0536 0.0000
vn 0.9986 -0.0536 0.0000
usemtl Material.001
s 1
f 1/1/1 2/2/1 3/3/1 4/4/1
f 5/5/2 4/6/2 3/7/2 6/8/2
f 6/9/3 3/10/3 2/11/3 7/12/3
f 7/13/4 8/14/4 5/15/4 6/16/4
f 8/17/5 1/18/5 4/19/5 5/20/5
f 7/21/6 2/22/6 1/23/6 8/24/6
f 9/25/1 10/26/1 11/27/1 12/28/1
f 13/29/2 12/30/2 11/31/2 14/32/2
f 14/33/7 11/34/7 10/35/7 15/36/7
f 15/37/4 16/38/4 13/39/4 14/40/4
f 16/41/8 9/42/8 12/43/8 13/44/8
f 15/45/6 10/46/6 9/47/6 16/48/6
