# Blender v3.5.0 OBJ File: ''
# www.blender.org
mtllib cage.mtl
o Cube.005_Cube.029
v -3.345780 3.332422 -3.626835
v -3.873780 3.332422 -3.626835
v -3.873780 3.918922 -3.626835
v -3.345780 3.918922 -3.626835
v -3.345780 3.918922 3.629265
v -3.873780 3.918922 3.629265
v -3.873780 3.332422 3.629265
v -3.345780 3.332422 3.629265
v -3.873780 -3.272948 -3.626835
v -3.345780 -3.272948 -3.626835
v -3.345780 -3.859455 -3.626835
v -3.873780 -3.859455 -3.626835
v -3.873780 -3.859455 3.629265
v -3.345780 -3.859455 3.629265
v -3.345780 -3.272948 3.629265
v -3.873780 -3.272948 3.629265
v -4.126837 -4.108012 -3.610470
v -4.126837 -4.108012 -4.134750
v 4.123162 -4.108005 -4.134750
v 4.123162 -4.108005 -3.610470
v 4.123162 4.141987 -4.134750
v 4.123162 4.141987 -3.610470
v -4.126837 4.141987 -4.134750
v -4.126837 4.141987 -3.610470
v 3.921135 -3.302205 -3.626835
v 3.921135 -3.830205 -3.626835
v 3.334628 -3.830205 -3.626835
v 3.334628 -3.302205 -3.626835
v 3.334628 -3.302205 3.629265
v 3.334628 -3.830205 3.629265
v 3.921135 -3.830205 3.629265
v 3.921135 -3.302205 3.629265
v 0.326587 -3.302205 -3.626835
v 0.326587 -3.830198 -3.626835
v -0.259913 -3.830198 -3.626835
v -0.259913 -3.302205 -3.626835
v -0.259913 -3.302205 3.629265
v -0.259913 -3.830198 3.629265
v 0.326587 -3.830198 3.629265
v 0.326587 -3.302205 3.629265
v 2.073262 -3.302205 -3.626835
v 2.073262 -3.830205 -3.626835
v 1.486755 -3.830198 -3.626835
v 1.486755 -3.302205 -3.626835
v 1.486755 -3.302205 3.629265
v 1.486755 -3.830198 3.629265
v 2.073262 -3.830205 3.629265
v 2.073262 -3.302205 3.629265
v -1.552987 -3.302205 -3.626835
v -1.552987 -3.830198 -3.626835
v -2.139495 -3.830198 -3.626835
v -2.139495 -3.302205 -3.626835
v -2.139495 -3.302205 3.629265
v -2.139495 -3.830198 3.629265
v -1.552987 -3.830198 3.629265
v -1.552987 -3.302205 3.629265
v -3.345780 -0.275520 -3.626835
v -3.873780 -0.275520 -3.626835
v -3.873780 0.310988 -3.626835
v -3.345780 0.310988 -3.626835
v -3.345780 0.310988 3.629265
v -3.873780 0.310988 3.629265
v -3.873780 -0.275520 3.629265
v -3.345780 -0.275520 3.629265
v -3.345780 -2.146305 -3.626835
v -3.873780 -2.146305 -3.626835
v -3.873780 -1.559798 -3.626835
v -3.345780 -1.559798 -3.626835
v -3.345780 -1.559798 3.629265
v -3.873780 -1.559798 3.629265
v -3.873780 -2.146305 3.629265
v -3.345780 -2.146305 3.629265
v -3.345780 1.361415 -3.626835
v -3.873780 1.361415 -3.626835
v -3.873780 1.947923 -3.626835
v -3.345780 1.947923 -3.626835
v -3.345780 1.947923 3.629265
v -3.873780 1.947923 3.629265
v -3.873780 1.361415 3.629265
v -3.345780 1.361415 3.629265
v -1.552987 3.897158 -3.626835
v -1.552987 3.369157 -3.626835
v -2.139495 3.369157 -3.626835
v -2.139495 3.897158 -3.626835
v -2.139495 3.897158 3.629265
v -2.139495 3.369157 3.629265
v -1.552987 3.369157 3.629265
v -1.552987 3.897158 3.629265
v 2.073262 3.897158 -3.626835
v 2.073262 3.369157 -3.626835
v 1.486755 3.369157 -3.626835
v 1.486755 3.897158 -3.626835
v 1.486755 3.897158 3.629265
v 1.486755 3.369157 3.629265
v 2.073262 3.369157 3.629265
v 2.073262 3.897158 3.629265
v 0.326587 3.897158 -3.626835
v 0.326587 3.369157 -3.626835
v -0.259913 3.369157 -3.626835
v -0.259913 3.897158 -3.626835
v -0.259913 3.897158 3.629265
v -0.259913 3.369157 3.629265
v 0.326587 3.369157 3.629265
v 0.326587 3.897158 3.629265
v 3.921135 3.897158 -3.626835
v 3.921135 3.369157 -3.626835
v 3.334628 3.369157 -3.626835
v 3.334628 3.897158 -3.626835
v 3.334628 3.897158 3.629265
v 3.334628 3.369157 3.629265
v 3.921135 3.369157 3.629265
v 3.921135 3.897158 3.629265
v 3.884873 1.361415 -3.626835
v 3.356872 1.361415 -3.626835
v 3.356872 1.947923 -3.626835
v 3.884873 1.947923 -3.626835
v 3.884873 1.947923 3.629265
v 3.356872 1.947923 3.629265
v 3.356872 1.361415 3.629265
v 3.884873 1.361415 3.629265
v 3.884873 -2.146305 -3.626835
v 3.356872 -2.146305 -3.626835
v 3.356872 -1.559798 -3.626835
v 3.884873 -1.559798 -3.626835
v 3.884873 -1.559798 3.629265
v 3.356872 -1.559798 3.629265
v 3.356872 -2.146305 3.629265
v 3.884873 -2.146305 3.629265
v 3.884873 -0.275520 -3.626835
v 3.356872 -0.275520 -3.626835
v 3.356872 0.310988 -3.626835
v 3.884873 0.310988 -3.626835
v 3.884873 0.310988 3.629265
v 3.356872 0.310988 3.629265
v 3.356872 -0.275520 3.629265
v 3.884873 -0.275520 3.629265
v -4.126837 -4.108012 4.115250
v -4.126837 -4.108012 3.590970
v 4.123162 -4.108005 3.590970
v 4.123162 -4.108005 4.115257
v 4.123162 4.141987 3.590970
v 4.123162 4.141987 4.115257
v -4.126837 4.141987 3.590970
v -4.126837 4.141987 4.115250
vt 0.933220 0.467175
vt 0.964228 0.467175
vt 0.964228 0.498182
vt 0.933220 0.498182
vt 0.939232 0.855492
vt 0.939232 0.886499
vt 0.908224 0.886499
vt 0.908224 0.855492
vt 0.939232 0.824484
vt 0.939232 0.855492
vt 0.908224 0.855492
vt 0.908224 0.824484
vt 0.908224 0.762468
vt 0.939232 0.762468
vt 0.939232 0.793476
vt 0.908224 0.793476
vt 0.939232 0.793476
vt 0.939232 0.824484
vt 0.908224 0.824484
vt 0.908224 0.793476
vt 0.964228 0.436167
vt 0.933220 0.436167
vt 0.970240 0.824484
vt 0.939232 0.824484
vt 0.939232 0.793476
vt 0.970240 0.793476
vt 0.939232 0.886499
vt 0.939232 0.917507
vt 0.908224 0.917507
vt 0.908224 0.886499
vt 0.966468 0.341085
vt 0.966468 0.372093
vt 0.935460 0.372093
vt 0.935460 0.341085
vt 0.997476 0.093023
vt 0.966468 0.093023
vt 0.966468 0.062015
vt 0.997476 0.062015
vt 0.967147 0.655702
vt 0.967147 0.686710
vt 0.936139 0.686710
vt 0.936139 0.655702
vt 0.967147 0.686709
vt 0.967147 0.717717
vt 0.936139 0.717717
vt 0.936139 0.686709
vt 0.879915 0.484496
vt 0.877675 0.484496
vt 0.877675 0.000000
vt 0.879915 0.000000
vt 0.924374 0.137774
vt 0.926614 0.137774
vt 0.926614 0.573941
vt 0.924374 0.573941
vt 0.884396 0.484496
vt 0.882155 0.484496
vt 0.882155 0.000000
vt 0.884396 0.000000
vt 0.922133 0.573941
vt 0.919893 0.573941
vt 0.919893 0.137774
vt 0.922133 0.137774
vt 0.872334 0.484496
vt 0.436167 0.484496
vt 0.436167 0.000000
vt 0.872334 0.000000
vt 0.872334 0.968992
vt 0.436167 0.968992
vt 0.436167 0.484496
vt 0.872334 0.484496
vt 0.966468 0.158475
vt 0.994383 0.158475
vt 0.994383 0.192918
vt 0.966468 0.192918
vt 0.027915 0.968992
vt 0.027915 1.000000
vt 0.000000 1.000000
vt 0.000000 0.968992
vt 0.908224 0.559243
vt 0.877217 0.559243
vt 0.877217 0.524799
vt 0.908224 0.524799
vt 0.994383 0.227362
vt 0.966468 0.227362
vt 0.966468 0.192918
vt 0.994383 0.192918
vt 0.908224 0.524799
vt 0.877217 0.524799
vt 0.877217 0.490355
vt 0.908224 0.490355
vt 0.083744 0.968992
vt 0.083744 1.000000
vt 0.055829 1.000000
vt 0.055829 0.968992
vt 0.966468 0.399579
vt 0.994383 0.399579
vt 0.994383 0.434023
vt 0.966468 0.434023
vt 0.139573 0.968992
vt 0.139573 1.000000
vt 0.111659 1.000000
vt 0.111659 0.968992
vt 0.887447 0.103331
vt 0.918455 0.103331
vt 0.918455 0.137774
vt 0.887447 0.137774
vt 0.995061 0.662573
vt 0.967147 0.662573
vt 0.967147 0.628130
vt 0.995061 0.628130
vt 0.877217 0.765904
vt 0.908224 0.765904
vt 0.908224 0.800348
vt 0.877217 0.800348
vt 0.167488 0.968992
vt 0.167488 1.000000
vt 0.139573 1.000000
vt 0.139573 0.968992
vt 0.966468 0.227362
vt 0.994383 0.227362
vt 0.994383 0.261805
vt 0.966468 0.261805
vt 0.055829 0.968992
vt 0.055829 1.000000
vt 0.027915 1.000000
vt 0.027915 0.968992
vt 0.908224 0.593686
vt 0.877217 0.593686
vt 0.877217 0.559243
vt 0.908224 0.559243
vt 0.994383 0.158475
vt 0.966468 0.158475
vt 0.966468 0.124031
vt 0.994383 0.124031
vt 0.908224 0.662573
vt 0.877217 0.662573
vt 0.877217 0.628130
vt 0.908224 0.628130
vt 0.998154 0.917507
vt 0.998154 0.948515
vt 0.970240 0.948515
vt 0.970240 0.917507
vt 0.967147 0.662573
vt 0.995061 0.662573
vt 0.995061 0.697017
vt 0.967147 0.697017
vt 0.998154 0.948515
vt 0.998154 0.979523
vt 0.970240 0.979523
vt 0.970240 0.948515
vt 0.877217 0.800348
vt 0.908224 0.800348
vt 0.908224 0.834791
vt 0.877217 0.834791
vt 0.995061 0.628130
vt 0.967147 0.628130
vt 0.967147 0.593686
vt 0.995061 0.593686
vt 0.887447 0.034444
vt 0.918455 0.034444
vt 0.918455 0.068887
vt 0.887447 0.068887
vt 0.111659 0.968992
vt 0.111659 1.000000
vt 0.083744 1.000000
vt 0.083744 0.968992
vt 0.970240 0.824484
vt 0.970240 0.855492
vt 0.939232 0.855492
vt 0.939232 0.824484
vt 0.964228 0.529190
vt 0.964228 0.560198
vt 0.933220 0.560198
vt 0.933220 0.529190
vt 0.966468 0.155039
vt 0.966468 0.186046
vt 0.935460 0.186046
vt 0.935460 0.155039
vt 0.997476 0.000000
vt 0.997476 0.031008
vt 0.966468 0.031008
vt 0.966468 0.000000
vt 0.966468 0.062016
vt 0.966468 0.093023
vt 0.935460 0.093023
vt 0.935460 0.062016
vt 0.966468 0.031008
vt 0.966468 0.062016
vt 0.935460 0.062016
vt 0.935460 0.031008
vt 0.995235 0.498182
vt 0.995235 0.529190
vt 0.964228 0.529190
vt 0.964228 0.498182
vt 0.966468 0.000000
vt 0.966468 0.031008
vt 0.935460 0.031008
vt 0.935460 0.000000
vt 0.995235 0.467175
vt 0.995235 0.498182
vt 0.964228 0.498182
vt 0.964228 0.467175
vt 0.939232 0.948515
vt 0.970240 0.948515
vt 0.970240 0.979523
vt 0.939232 0.979523
vt 0.970240 0.855492
vt 0.970240 0.886499
vt 0.939232 0.886499
vt 0.939232 0.855492
vt 0.964228 0.498182
vt 0.964228 0.529190
vt 0.933220 0.529190
vt 0.933220 0.498182
vt 0.997476 0.031008
vt 0.997476 0.062015
vt 0.966468 0.062015
vt 0.966468 0.031008
vt 0.939232 0.917507
vt 0.939232 0.948515
vt 0.908224 0.948515
vt 0.908224 0.917507
vt 0.966468 0.372093
vt 0.966468 0.403101
vt 0.935460 0.403101
vt 0.935460 0.372093
vt 0.970240 0.762468
vt 0.970240 0.793476
vt 0.939232 0.793476
vt 0.939232 0.762468
vt 0.908224 0.934686
vt 0.908224 0.965694
vt 0.877217 0.965694
vt 0.877217 0.934686
vt 0.967147 0.593686
vt 0.967147 0.624694
vt 0.936139 0.624694
vt 0.936139 0.593686
vt 0.994383 0.330692
vt 0.966468 0.330692
vt 0.966468 0.296249
vt 0.994383 0.296249
vt 0.998154 0.793476
vt 0.998154 0.824484
vt 0.970240 0.824484
vt 0.970240 0.793476
vt 0.877217 0.834791
vt 0.908224 0.834791
vt 0.908224 0.869235
vt 0.877217 0.869235
vt 0.966468 0.365136
vt 0.994383 0.365136
vt 0.994383 0.399579
vt 0.966468 0.399579
vt 0.877217 0.869235
vt 0.908224 0.869235
vt 0.908224 0.903678
vt 0.877217 0.903678
vt 0.998154 0.855492
vt 0.998154 0.886499
vt 0.970240 0.886499
vt 0.970240 0.855492
vt 0.936139 0.662573
vt 0.908224 0.662573
vt 0.908224 0.628130
vt 0.936139 0.628130
vt 0.998154 0.762468
vt 0.998154 0.793476
vt 0.970240 0.793476
vt 0.970240 0.762468
vt 0.908224 0.731461
vt 0.877217 0.731461
vt 0.877217 0.697017
vt 0.908224 0.697017
vt 0.936139 0.697017
vt 0.936139 0.731461
vt 0.908224 0.697017
vt 0.877217 0.697017
vt 0.877217 0.662573
vt 0.908224 0.662573
vt 0.995061 0.697017
vt 0.995061 0.728025
vt 0.967147 0.728025
vt 0.967147 0.697017
vt 0.994383 0.296249
vt 0.966468 0.296249
vt 0.966468 0.261805
vt 0.994383 0.261805
vt 0.998154 0.731461
vt 0.998154 0.762468
vt 0.970240 0.762468
vt 0.970240 0.731461
vt 0.887447 0.000000
vt 0.918455 0.000000
vt 0.918455 0.034444
vt 0.887447 0.034444
vt 0.966468 0.330692
vt 0.994383 0.330692
vt 0.994383 0.365136
vt 0.966468 0.365136
vt 0.887447 0.068887
vt 0.918455 0.068887
vt 0.918455 0.103331
vt 0.887447 0.103331
vt 0.998154 0.886499
vt 0.998154 0.917507
vt 0.970240 0.917507
vt 0.970240 0.886499
vt 0.936139 0.697017
vt 0.908224 0.697017
vt 0.908224 0.662573
vt 0.936139 0.662573
vt 0.998154 0.824484
vt 0.998154 0.855492
vt 0.970240 0.855492
vt 0.970240 0.824484
vt 0.908224 0.628130
vt 0.877217 0.628130
vt 0.877217 0.593686
vt 0.908224 0.593686
vt 0.936139 0.593686
vt 0.936139 0.628130
vt 0.908224 0.765904
vt 0.877217 0.765904
vt 0.877217 0.731461
vt 0.908224 0.731461
vt 0.905131 0.965694
vt 0.905131 0.996702
vt 0.877217 0.996702
vt 0.877217 0.965694
vt 0.966468 0.093023
vt 0.997476 0.093023
vt 0.997476 0.124031
vt 0.966468 0.124031
vt 0.970240 0.731461
vt 0.970240 0.762468
vt 0.939232 0.762468
vt 0.939232 0.731461
vt 0.966468 0.093023
vt 0.966468 0.124031
vt 0.935460 0.124031
vt 0.935460 0.093023
vt 0.964228 0.529190
vt 0.995235 0.529190
vt 0.995235 0.560198
vt 0.964228 0.560198
vt 0.966468 0.124031
vt 0.966468 0.155039
vt 0.935460 0.155039
vt 0.935460 0.124031
vt 0.966468 0.186047
vt 0.966468 0.217054
vt 0.935460 0.217054
vt 0.935460 0.186047
vt 0.964228 0.436167
vt 0.995235 0.436167
vt 0.995235 0.467175
vt 0.964228 0.467175
vt 0.966468 0.217054
vt 0.966468 0.248062
vt 0.935460 0.248062
vt 0.935460 0.217054
vt 0.939232 0.948515
vt 0.939232 0.979523
vt 0.908224 0.979523
vt 0.908224 0.948515
vt 0.939232 0.917507
vt 0.970240 0.917507
vt 0.970240 0.948515
vt 0.970240 0.886499
vt 0.970240 0.917507
vt 0.939232 0.917507
vt 0.939232 0.886499
vt 0.966468 0.248062
vt 0.966468 0.279070
vt 0.935460 0.279070
vt 0.935460 0.248062
vt 0.877217 0.903678
vt 0.908224 0.903678
vt 0.908224 0.934686
vt 0.877217 0.934686
vt 0.966468 0.279070
vt 0.966468 0.310078
vt 0.935460 0.310078
vt 0.935460 0.279070
vt 0.966468 0.310078
vt 0.966468 0.341085
vt 0.935460 0.341085
vt 0.935460 0.310078
vt 0.908224 0.731461
vt 0.939232 0.731461
vt 0.939232 0.762468
vt 0.908224 0.762468
vt 0.966468 0.403101
vt 0.966468 0.434108
vt 0.935460 0.434108
vt 0.935460 0.403101
vt 0.967147 0.624694
vt 0.967147 0.655702
vt 0.936139 0.655702
vt 0.936139 0.624694
vt 0.882155 0.484496
vt 0.879915 0.484496
vt 0.879915 0.000000
vt 0.882155 0.000000
vt 0.926614 0.000000
vt 0.928855 0.000000
vt 0.928854 0.436167
vt 0.926614 0.436167
vt 0.877675 0.484496
vt 0.875434 0.484496
vt 0.875434 0.000000
vt 0.877675 0.000000
vt 0.924374 0.573941
vt 0.922133 0.573941
vt 0.922133 0.137774
vt 0.924374 0.137774
vt 0.436167 0.484496
vt 0.000000 0.484496
vt 0.000000 0.000000
vt 0.436167 0.000000
vt 0.436167 0.968992
vt 0.000000 0.968992
vt 0.000000 0.484496
vt 0.436167 0.484496
vn 0.0000 0.0000 -1.0000
vn 0.0000 1.0000 0.0000
vn -1.0000 0.0000 0.0000
vn 0.0000 0.0000 1.0000
vn 1.0000 0.0000 0.0000
vn 0.0000 -1.0000 0.0000
usemtl Material.039
s 1
f 1/1/1 2/2/1 3/3/1 4/4/1
f 5/5/2 4/6/2 3/7/2 6/8/2
f 6/9/3 3/10/3 2/11/3 7/12/3
f 7/13/4 8/14/4 5/15/4 6/16/4
f 8/17/5 1/18/5 4/19/5 5/20/5
f 7/21/6 2/2/6 1/1/6 8/22/6
f 9/23/1 10/24/1 11/25/1 12/26/1
f 13/27/6 12/28/6 11/29/6 14/30/6
f 14/31/5 11/32/5 10/33/5 15/34/5
f 15/35/4 16/36/4 13/37/4 14/38/4
f 16/39/3 9/40/3 12/41/3 13/42/3
f 15/43/2 10/44/2 9/45/2 16/46/2
f 17/47/6 18/48/6 19/49/6 20/50/6
f 20/51/5 19/52/5 21/53/5 22/54/5
f 22/55/2 21/56/2 23/57/2 24/58/2
f 24/59/3 23/60/3 18/61/3 17/62/3
f 20/63/4 22/64/4 24/65/4 17/66/4
f 21/67/1 19/68/1 18/69/1 23/70/1
f 25/71/1 26/72/1 27/73/1 28/74/1
f 29/75/3 28/76/3 27/77/3 30/78/3
f 30/79/6 27/80/6 26/81/6 31/82/6
f 31/83/4 32/84/4 29/85/4 30/86/4
f 32/87/2 25/88/2 28/89/2 29/90/2
f 31/91/5 26/92/5 25/93/5 32/94/5
f 33/95/1 34/96/1 35/97/1 36/98/1
f 37/99/3 36/100/3 35/101/3 38/102/3
f 38/103/6 35/104/6 34/105/6 39/106/6
f 39/107/4 40/108/4 37/109/4 38/110/4
f 40/111/2 33/112/2 36/113/2 37/114/2
f 39/115/5 34/116/5 33/117/5 40/118/5
f 41/119/1 42/120/1 43/121/1 44/122/1
f 45/123/3 44/124/3 43/125/3 46/126/3
f 46/127/6 43/128/6 42/129/6 47/130/6
f 47/131/4 48/132/4 45/133/4 46/134/4
f 48/135/2 41/136/2 44/137/2 45/138/2
f 47/139/5 42/140/5 41/141/5 48/142/5
f 49/143/1 50/144/1 51/145/1 52/146/1
f 53/147/3 52/148/3 51/149/3 54/150/3
f 54/151/6 51/152/6 50/153/6 55/154/6
f 55/155/4 56/156/4 53/157/4 54/158/4
f 56/159/2 49/160/2 52/161/2 53/162/2
f 55/163/5 50/164/5 49/165/5 56/166/5
f 57/167/1 58/168/1 59/169/1 60/170/1
f 61/171/2 60/172/2 59/173/2 62/174/2
f 62/175/3 59/176/3 58/177/3 63/178/3
f 63/179/4 64/180/4 61/181/4 62/182/4
f 64/183/5 57/184/5 60/185/5 61/186/5
f 63/187/6 58/188/6 57/189/6 64/190/6
f 65/191/1 66/192/1 67/193/1 68/194/1
f 69/195/2 68/196/2 67/197/2 70/198/2
f 70/199/3 67/200/3 66/201/3 71/202/3
f 71/203/4 72/204/4 69/205/4 70/206/4
f 72/207/5 65/208/5 68/209/5 69/210/5
f 71/211/6 66/212/6 65/213/6 72/214/6
f 73/215/1 74/216/1 75/217/1 76/218/1
f 77/219/2 76/220/2 75/221/2 78/222/2
f 78/223/3 75/224/3 74/225/3 79/226/3
f 79/227/4 80/228/4 77/229/4 78/230/4
f 80/231/5 73/232/5 76/233/5 77/234/5
f 79/235/6 74/236/6 73/237/6 80/238/6
f 81/239/1 82/240/1 83/241/1 84/242/1
f 85/243/3 84/244/3 83/245/3 86/246/3
f 86/247/6 83/248/6 82/249/6 87/250/6
f 87/251/4 88/252/4 85/253/4 86/254/4
f 88/255/2 81/256/2 84/257/2 85/258/2
f 87/259/5 82/260/5 81/261/5 88/262/5
f 89/263/1 90/264/1 91/265/1 92/266/1
f 93/267/3 92/268/3 91/269/3 94/270/3
f 94/271/6 91/272/6 90/273/6 95/274/6
f 95/274/4 96/275/4 93/276/4 94/271/4
f 96/277/2 89/278/2 92/279/2 93/280/2
f 95/281/5 90/282/5 89/283/5 96/284/5
f 97/285/1 98/286/1 99/287/1 100/288/1
f 101/289/3 100/290/3 99/291/3 102/292/3
f 102/293/6 99/294/6 98/295/6 103/296/6
f 103/297/4 104/298/4 101/299/4 102/300/4
f 104/301/2 97/302/2 100/303/2 101/304/2
f 103/305/5 98/306/5 97/307/5 104/308/5
f 105/309/1 106/310/1 107/311/1 108/312/1
f 109/313/3 108/314/3 107/315/3 110/316/3
f 110/317/6 107/318/6 106/319/6 111/320/6
f 111/320/4 112/321/4 109/322/4 110/317/4
f 112/323/2 105/324/2 108/325/2 109/326/2
f 111/327/5 106/328/5 105/329/5 112/330/5
f 113/331/1 114/332/1 115/333/1 116/334/1
f 117/335/2 116/336/2 115/337/2 118/338/2
f 118/339/3 115/340/3 114/341/3 119/342/3
f 119/343/4 120/344/4 117/345/4 118/346/4
f 120/347/5 113/348/5 116/349/5 117/350/5
f 119/351/6 114/352/6 113/353/6 120/354/6
f 121/355/1 122/356/1 123/357/1 124/358/1
f 125/359/2 124/360/2 123/361/2 126/362/2
f 126/363/3 123/364/3 122/365/3 127/366/3
f 127/367/4 128/368/4 125/369/4 126/363/4
f 128/370/5 121/371/5 124/372/5 125/373/5
f 127/374/6 122/375/6 121/376/6 128/377/6
f 129/378/1 130/379/1 131/380/1 132/381/1
f 133/382/2 132/383/2 131/384/2 134/385/2
f 134/386/3 131/387/3 130/388/3 135/389/3
f 135/390/4 136/391/4 133/392/4 134/393/4
f 136/394/5 129/395/5 132/396/5 133/397/5
f 135/398/6 130/399/6 129/400/6 136/401/6
f 137/402/6 138/403/6 139/404/6 140/405/6
f 140/406/5 139/407/5 141/408/5 142/409/5
f 142/410/2 141/411/2 143/412/2 144/413/2
f 144/414/3 143/415/3 138/416/3 137/417/3
f 140/418/4 142/419/4 144/420/4 137/421/4
f 141/422/1 139/423/1 138/424/1 143/425/1
