# Blender v3.5.0 OBJ File: ''
# www.blender.org
mtllib Sleep.mtl
o 立方体.002_立方体.003
v -2.959960 3.974795 0.671280
v -2.959960 4.564215 0.671280
v -2.959960 4.564215 -0.493250
v -2.959960 3.974795 -0.493250
v 0.224535 4.564215 -0.493250
v 0.224535 3.974795 -0.493250
v 0.224535 4.564215 0.671280
v 0.224535 3.974795 0.671280
v -2.959960 7.064160 0.671279
v -2.959960 7.653575 0.671279
v -2.959960 7.653575 -0.493251
v -2.959960 7.064160 -0.493251
v 0.224535 7.653575 -0.493251
v 0.224535 7.064160 -0.493251
v 0.224535 7.653575 0.671279
v 0.224535 7.064160 0.671279
v -2.333715 4.005205 0.671280
v -2.925820 4.496270 0.671280
v -2.925820 4.496270 -0.493250
v -2.333715 4.005205 -0.493250
v -0.357675 7.638185 -0.493251
v 0.241380 7.155620 -0.493251
v -0.357675 7.638185 0.671279
v 0.241380 7.155620 0.671279
v 1.526160 8.056050 0.932494
v 1.526160 8.909885 0.932494
v 1.526160 8.909885 -0.754461
v 1.526160 8.056050 -0.754461
v 6.139255 8.909885 -0.754461
v 6.139255 8.056050 -0.754461
v 6.139255 8.909885 0.932494
v 6.139255 8.056050 0.932494
v 1.526160 12.531330 0.932494
v 1.526160 13.385164 0.932494
v 1.526160 13.385164 -0.754461
v 1.526160 12.531330 -0.754461
v 6.139255 13.385164 -0.754461
v 6.139255 12.531330 -0.754461
v 6.139255 13.385164 0.932494
v 6.139255 12.531330 0.932494
v 2.433345 8.100095 0.932494
v 1.575620 8.811455 0.932494
v 1.575620 8.811455 -0.754461
v 2.433345 8.100095 -0.754461
v 5.295860 13.362870 -0.754461
v 6.163655 12.663820 -0.754461
v 5.295860 13.362870 0.932494
v 6.163655 12.663820 0.932494
vt 0.685106 0.977771
vt 0.584233 0.977771
vt 0.584233 0.876883
vt 0.685106 0.876883
vt 0.831268 0.730736
vt 0.831268 0.831624
vt 0.730381 0.831624
vt 0.730381 0.730736
vt 0.247017 0.999835
vt 0.146147 0.999835
vt 0.146147 0.898947
vt 0.247017 0.898947
vt 0.494070 0.766819
vt 0.494070 0.867707
vt 0.393182 0.867707
vt 0.393182 0.766819
vt 0.831268 0.831624
vt 0.932156 0.831624
vt 0.932156 0.932511
vt 0.831268 0.932511
vt 0.831268 0.730736
vt 0.932156 0.730736
vt 0.932156 0.831624
vt 0.831268 0.831624
vt 0.977375 0.730736
vt 0.876502 0.730736
vt 0.876502 0.629848
vt 0.977375 0.629848
vt 0.494070 0.867707
vt 0.494070 0.968595
vt 0.393182 0.968595
vt 0.393182 0.867707
vt 0.100870 1.000000
vt 0.000000 1.000000
vt 0.000000 0.899112
vt 0.100870 0.899112
vt 0.393182 0.867707
vt 0.393182 0.968595
vt 0.292294 0.968595
vt 0.292294 0.867707
vt 0.730381 0.831624
vt 0.831268 0.831624
vt 0.831268 0.932511
vt 0.730381 0.932511
vt 0.292294 0.766819
vt 0.393182 0.766819
vt 0.393182 0.867707
vt 0.292294 0.867707
vt 0.393182 0.000000
vt 0.393182 0.084364
vt 0.292295 0.084364
vt 0.292295 0.000000
vt 0.876528 0.000000
vt 0.907648 0.080302
vt 0.907648 0.624209
vt 0.876528 0.545379
vt 0.494070 0.537618
vt 0.494070 0.620558
vt 0.393182 0.620558
vt 0.393182 0.537618
vt 0.907648 0.078830
vt 0.938769 0.000000
vt 0.938769 0.543908
vt 0.907648 0.624209
vt 0.494070 0.000000
vt 0.292294 0.620672
vt 0.393182 0.620672
vt 0.876506 0.438442
vt 0.730380 0.438442
vt 0.730380 0.292294
vt 0.876506 0.292294
vt 0.730381 0.730736
vt 0.584233 0.730736
vt 0.584233 0.584589
vt 0.730381 0.584589
vt 0.876502 0.730736
vt 0.730381 0.730736
vt 0.730381 0.584589
vt 0.876502 0.584589
vt 0.730381 0.146147
vt 0.584233 0.146147
vt 0.584233 0.000000
vt 0.730381 0.000000
vt 0.730380 0.292294
vt 0.730380 0.438442
vt 0.584233 0.438442
vt 0.584233 0.292294
vt 0.876528 0.146147
vt 0.876528 0.292294
vt 0.730381 0.292294
vt 0.730381 0.146147
vt 0.876506 0.584589
vt 0.730380 0.584589
vt 0.730380 0.438442
vt 0.876506 0.438442
vt 0.730380 0.292294
vt 0.584233 0.292294
vt 0.584233 0.146147
vt 0.730380 0.146147
vt 0.730355 0.876883
vt 0.584233 0.876883
vt 0.584233 0.730736
vt 0.730355 0.730736
vt 0.876528 0.146147
vt 0.730381 0.146147
vt 0.730381 0.000000
vt 0.876528 0.000000
vt 0.730380 0.438442
vt 0.730380 0.584589
vt 0.584233 0.584589
vt 0.584233 0.438442
vt 0.438442 0.620672
vt 0.438442 0.766819
vt 0.292294 0.766819
vt 0.292294 0.620672
vt 0.146147 0.000000
vt 0.146147 0.122210
vt 0.000000 0.122210
vt 0.000000 0.000000
vt 0.494070 0.000000
vt 0.539152 0.116326
vt 0.539152 0.904236
vt 0.494070 0.790042
vt 0.292294 0.778799
vt 0.292294 0.898947
vt 0.146147 0.898947
vt 0.146147 0.778799
vt 0.539152 0.114194
vt 0.584233 0.000000
vt 0.584233 0.787911
vt 0.539152 0.904236
vt 0.292294 0.000000
vt 0.000000 0.899112
vt 0.146147 0.899112
vn -1.0000 -0.0000 0.0000
vn 0.0000 -0.0000 -1.0000
vn 1.0000 -0.0000 0.0000
vn 0.0000 0.0000 1.0000
vn 0.0000 -1.0000 0.0000
vn 0.0000 1.0000 0.0000
vn -0.6384 -0.7697 0.0000
vn 0.6273 0.7788 0.0000
vn 0.7743 -0.6329 0.0000
vn -0.7743 0.6329 0.0000
usemtl マテリアル.002
s 1
f 1/1/1 2/2/1 3/3/1 4/4/1
f 4/5/2 3/6/2 5/7/2 6/8/2
f 6/9/3 5/10/3 7/11/3 8/12/3
f 8/13/4 7/14/4 2/15/4 1/16/4
f 4/17/5 6/18/5 8/19/5 1/20/5
f 5/21/6 3/22/6 2/23/6 7/24/6
f 9/25/1 10/26/1 11/27/1 12/28/1
f 12/29/2 11/30/2 13/31/2 14/32/2
f 14/33/3 13/34/3 15/35/3 16/36/3
f 16/37/4 15/38/4 10/39/4 9/40/4
f 12/41/5 14/42/5 16/43/5 9/44/5
f 13/45/6 11/46/6 10/47/6 15/48/6
f 17/49/7 18/50/7 19/51/7 20/52/7
f 20/53/2 19/54/2 21/55/2 22/56/2
f 22/57/8 21/58/8 23/59/8 24/60/8
f 24/61/4 23/62/4 18/63/4 17/64/4
f 20/65/9 22/57/9 24/60/9 17/49/9
f 21/66/10 19/51/10 18/50/10 23/67/10
f 25/68/1 26/69/1 27/70/1 28/71/1
f 28/72/2 27/73/2 29/74/2 30/75/2
f 30/76/3 29/77/3 31/78/3 32/79/3
f 32/80/4 31/81/4 26/82/4 25/83/4
f 28/84/5 30/85/5 32/86/5 25/87/5
f 29/88/6 27/89/6 26/90/6 31/91/6
f 33/92/1 34/93/1 35/94/1 36/95/1
f 36/96/2 35/97/2 37/98/2 38/99/2
f 38/100/3 37/101/3 39/102/3 40/103/3
f 40/104/4 39/105/4 34/106/4 33/107/4
f 36/108/5 38/109/5 40/110/5 33/111/5
f 37/112/6 35/113/6 34/114/6 39/115/6
f 41/116/7 42/117/7 43/118/7 44/119/7
f 44/120/2 43/121/2 45/122/2 46/123/2
f 46/124/8 45/125/8 47/126/8 48/127/8
f 48/128/4 47/129/4 42/130/4 41/131/4
f 44/132/9 46/124/9 48/127/9 41/116/9
f 45/133/10 43/118/10 42/117/10 47/134/10
