# Blender v3.5.0 OBJ File: ''
# www.blender.org
mtllib Cloud.mtl
o Cube.001
v 0.202504 0.362088 -0.123437
v 0.202504 0.016794 -0.123437
v 0.202504 0.362088 0.893893
v 0.202504 0.016794 0.893893
v -0.686616 0.362088 -0.123437
v -0.686616 0.016794 -0.123437
v -0.686616 0.362088 0.893893
v -0.686616 0.016794 0.893893
v 0.413384 0.578712 -0.721419
v 0.413384 0.183409 -0.721419
v 0.413384 0.578712 0.295911
v 0.413384 0.183409 0.295911
v -0.475736 0.578712 -0.721419
v -0.475736 0.183409 -0.721419
v -0.475736 0.578712 0.295911
v -0.475736 0.183409 0.295911
vt 0.500000 0.286208
vt 0.750000 0.286208
vt 0.750000 0.536208
vt 0.500000 0.536208
vt 0.250000 0.572415
vt 0.250000 0.822415
vt 0.000000 0.822415
vt 0.000000 0.572415
vt 0.750000 0.536208
vt 0.750000 0.786208
vt 0.500000 0.786208
vt 0.500000 0.536208
vt 0.500000 0.000000
vt 0.750000 0.000000
vt 0.750000 0.250000
vt 0.500000 0.250000
vt 1.000000 0.286208
vt 1.000000 0.536208
vt 0.750000 0.536208
vt 0.750000 0.286208
vt 1.000000 0.000000
vt 1.000000 0.250000
vt 0.750000 0.250000
vt 0.250000 0.572415
vt 0.500000 0.572415
vt 0.500000 0.822415
vt 0.250000 0.822415
vt 0.250000 0.286208
vt 0.250000 0.572415
vt 0.000000 0.572415
vt 0.000000 0.286208
vt 0.250000 0.000000
vt 0.250000 0.286208
vt 0.000000 0.286208
vt 0.000000 0.000000
vt 0.750000 0.536208
vt 1.000000 0.536208
vt 1.000000 0.786208
vt 0.750000 0.786208
vt 0.500000 0.000000
vt 0.500000 0.286208
vt 0.250000 0.286208
vt 0.250000 0.000000
vt 0.500000 0.286208
vt 0.250000 0.286208
vn 0.0000 1.0000 0.0000
vn 0.0000 0.0000 1.0000
vn -1.0000 0.0000 0.0000
vn 0.0000 -1.0000 0.0000
vn 1.0000 0.0000 0.0000
vn 0.0000 0.0000 -1.0000
usemtl Material
s off
f 1/1/1 5/2/1 7/3/1 3/4/1
f 4/5/2 3/6/2 7/7/2 8/8/2
f 8/9/3 7/10/3 5/11/3 6/12/3
f 6/13/4 2/14/4 4/15/4 8/16/4
f 2/17/5 1/18/5 3/19/5 4/20/5
f 6/21/6 5/22/6 1/23/6 2/14/6
f 9/24/1 13/25/1 15/26/1 11/27/1
f 12/28/2 11/29/2 15/30/2 16/31/2
f 16/32/3 15/33/3 13/34/3 14/35/3
f 14/36/4 10/37/4 12/38/4 16/39/4
f 10/40/5 9/41/5 11/42/5 12/43/5
f 14/44/6 13/25/6 9/24/6 10/45/6
