# Blender v3.5.0 OBJ File: ''
# www.blender.org
mtllib danger.mtl
o Cube.001
v 2.750000 -2.750000 -0.569370
v -2.750000 -2.750000 -0.569370
v -2.750000 2.750000 -0.569370
v 2.750000 2.750000 -0.569370
v 2.750000 2.750000 0.569370
v -2.750000 2.750000 0.569370
v -2.750000 -2.750000 0.569370
v 2.750000 -2.750000 0.569370
vt 1.000000 0.000000
vt 0.666667 0.333333
vt 0.666667 0.000000
vt 0.333333 0.333333
vt 0.000000 0.000000
vt 0.333333 0.000000
vt 0.333333 0.666667
vt 0.000000 0.333333
vt 0.333333 0.333333
vt 0.666667 0.000000
vt 0.333333 0.000000
vt 0.666667 0.666667
vt 0.333333 0.333333
vt 0.666667 0.333333
vt 0.333333 1.000000
vt 0.000000 0.666667
vt 0.333333 0.666667
vt 1.000000 0.333333
vt 0.000000 0.333333
vt 0.000000 0.666667
vt 0.666667 0.333333
vt 0.333333 0.666667
vt 0.000000 1.000000
vn 0.0000 0.0000 -1.0000
vn 0.0000 1.0000 0.0000
vn -1.0000 0.0000 0.0000
vn 0.0000 -0.0000 1.0000
vn 1.0000 -0.0000 0.0000
vn 0.0000 -1.0000 0.0000
usemtl Material.001
s 1
f 2/1/1 4/2/1 1/3/1
f 4/4/2 6/5/2 5/6/2
f 3/7/3 7/8/3 6/9/3
f 8/10/4 6/9/4 7/11/4
f 1/12/5 5/13/5 8/14/5
f 2/15/6 8/16/6 7/17/6
f 2/1/1 3/18/1 4/2/1
f 4/4/2 3/19/2 6/5/2
f 3/7/3 2/20/3 7/8/3
f 8/10/4 5/21/4 6/9/4
f 1/12/5 4/22/5 5/13/5
f 2/15/6 1/23/6 8/16/6
